<?xml version="1.0" standalone="no"?>
<!DOCTYPE svg PUBLIC "-//W3C//DTD SVG 20010904//EN"
 "http://www.w3.org/TR/2001/REC-SVG-20010904/DTD/svg10.dtd">
<svg version="1.0" xmlns="http://www.w3.org/2000/svg"
 width="1600.000000pt" height="1600.000000pt" viewBox="0 0 1600.000000 1600.000000"
 preserveAspectRatio="xMidYMid meet">
<metadata>
Created by potrace 1.14, written by Peter Selinger 2001-2017
</metadata>
<g transform="translate(0.000000,1600.000000) scale(0.100000,-0.100000)"
fill="#000000" stroke="none">
<path d="M6780 15083 c-190 -14 -406 -37 -460 -48 -36 -8 -90 -19 -120 -26
-30 -6 -86 -17 -125 -24 -209 -37 -504 -116 -559 -150 -21 -12 -131 -43 -311
-86 -49 -12 -98 -26 -108 -31 -17 -9 -109 -29 -302 -65 -75 -15 -156 -17 -495
-18 -442 0 -468 2 -720 66 -106 27 -184 42 -375 70 -108 17 -624 6 -700 -14
-33 -9 -73 -16 -89 -17 -25 0 -132 -46 -247 -106 -14 -7 -52 -23 -85 -35 -32
-12 -81 -40 -109 -61 -27 -22 -77 -59 -110 -84 -104 -78 -292 -276 -352 -372
-10 -15 -32 -45 -49 -67 -49 -61 -101 -268 -120 -475 -7 -77 39 -565 61 -651
8 -31 15 -68 15 -81 0 -13 7 -51 16 -83 11 -42 17 -121 20 -258 4 -197 4 -198
-27 -300 -34 -114 -38 -130 -69 -272 -11 -55 -28 -125 -35 -155 -37 -143 -49
-194 -72 -315 -13 -71 -28 -161 -33 -200 -23 -184 -41 -286 -60 -347 -11 -36
-25 -101 -30 -144 -6 -43 -12 -85 -15 -94 -2 -8 -12 -89 -21 -180 -12 -122
-16 -261 -15 -536 1 -363 10 -501 40 -609 26 -97 88 -456 106 -615 23 -207 43
-342 62 -410 24 -93 24 -466 -1 -524 -9 -21 -20 -62 -26 -90 -5 -28 -16 -78
-24 -111 -8 -33 -21 -94 -30 -135 -8 -41 -34 -165 -58 -275 -39 -181 -43 -213
-42 -335 0 -139 23 -267 59 -336 8 -16 15 -40 15 -54 0 -24 30 -172 50 -251 5
-19 32 -72 59 -118 27 -45 53 -96 56 -114 4 -18 24 -104 45 -192 79 -333 74
-301 74 -545 -1 -124 -6 -263 -12 -310 -6 -47 -16 -139 -22 -205 -21 -237 -29
-302 -55 -465 -14 -91 -30 -199 -35 -240 -5 -41 -13 -88 -18 -105 -16 -54 -61
-346 -76 -505 -23 -224 -21 -607 3 -771 10 -69 24 -134 30 -145 6 -10 17 -37
25 -59 43 -124 91 -220 127 -256 21 -21 50 -60 63 -87 14 -27 42 -65 62 -83
20 -19 41 -40 48 -47 50 -57 97 -97 131 -112 39 -17 47 -24 102 -87 25 -28 44
-36 153 -62 69 -17 161 -45 205 -63 79 -31 82 -31 246 -31 114 1 174 5 190 13
32 17 150 50 224 61 176 28 267 41 335 49 53 5 98 18 155 44 44 21 94 43 110
51 73 33 499 57 630 35 33 -5 110 -13 170 -16 110 -7 150 -18 190 -54 50 -46
121 -70 320 -110 52 -11 96 -28 115 -45 45 -40 239 -87 440 -105 104 -10 184
-25 310 -61 36 -10 103 -22 150 -28 121 -15 527 -32 575 -25 36 6 84 19 260
71 111 34 265 47 530 46 398 0 467 -8 610 -68 17 -7 80 -15 140 -19 61 -3 135
-10 165 -15 91 -16 298 -22 415 -11 61 6 196 14 301 19 160 8 198 12 237 30
25 12 53 21 61 21 8 0 41 7 73 15 32 9 85 18 118 21 99 10 241 42 282 64 21
11 42 20 48 20 5 0 37 16 69 36 32 19 77 39 100 43 23 5 68 16 101 25 32 9 70
16 83 16 13 0 63 19 110 41 109 53 121 53 482 23 304 -25 602 -44 714 -44 198
-1 642 -54 687 -83 13 -8 38 -18 54 -22 17 -3 57 -20 90 -36 33 -16 92 -33
130 -39 219 -32 906 -17 1075 24 14 3 52 11 85 16 33 5 86 19 117 30 32 11 64
20 72 20 49 0 265 75 371 129 66 34 128 61 138 61 37 0 90 31 150 88 34 33 90
78 124 101 34 23 76 59 93 79 17 20 39 46 48 57 9 11 33 31 54 43 20 12 56 49
80 82 23 33 46 60 50 60 27 0 150 144 203 235 15 28 41 63 56 79 15 15 33 42
40 60 7 17 29 52 50 77 37 45 55 90 129 324 13 39 28 106 34 150 14 102 3 352
-19 437 -26 98 -56 226 -70 303 -27 145 -45 210 -78 279 -69 143 -99 232 -117
351 -4 28 -16 87 -25 131 -19 86 -18 94 16 314 17 111 7 563 -14 610 -44 97
-69 180 -87 277 -11 60 -24 124 -30 143 -12 38 -38 317 -47 504 -6 123 0 187
42 451 44 273 64 448 75 635 14 229 5 346 -45 620 -9 47 -20 137 -25 200 -10
121 -38 339 -46 351 -13 22 -23 231 -22 465 0 148 1 377 2 509 1 154 6 260 14
295 14 60 44 284 68 495 17 158 37 239 80 326 57 115 97 265 140 523 20 118
14 339 -12 476 -18 97 -121 412 -147 451 -32 48 -54 178 -65 384 -8 137 -8
224 -1 275 5 41 14 122 18 180 5 58 21 159 36 225 23 102 26 134 21 215 -9
138 -63 385 -107 486 -24 58 -163 243 -251 336 -52 56 -83 77 -183 128 -66 34
-131 70 -146 80 -43 31 -245 66 -494 85 -52 4 -131 1 -220 -10 -451 -53 -515
-64 -625 -108 -51 -20 -71 -22 -290 -22 -214 1 -242 3 -315 23 -154 44 -180
51 -230 57 -167 22 -346 66 -420 104 -21 12 -46 21 -54 21 -7 0 -32 9 -55 19
-23 11 -104 38 -181 61 -77 23 -156 48 -175 56 -71 30 -245 46 -415 39 -214
-9 -282 -18 -422 -58 -65 -19 -172 -47 -238 -62 -66 -15 -151 -42 -190 -60
-107 -50 -171 -71 -280 -95 -141 -30 -200 -44 -280 -70 -162 -51 -253 -62
-530 -63 -237 -1 -270 1 -369 22 -61 13 -119 29 -130 36 -20 14 -135 58 -246
95 -30 10 -111 47 -181 83 -138 72 -247 117 -288 117 -14 1 -44 8 -66 16 -22
9 -60 20 -85 24 -25 5 -67 16 -95 24 -134 40 -309 54 -505 39z m295 -477 c61
-10 178 -31 260 -48 83 -16 180 -32 217 -34 83 -4 94 -10 153 -79 26 -30 53
-55 60 -55 7 0 33 -20 57 -44 46 -46 77 -66 102 -66 9 0 35 -9 59 -19 56 -26
114 -41 158 -41 20 0 51 -8 70 -17 31 -16 76 -18 524 -17 407 0 510 3 607 17
175 26 321 82 571 221 205 113 453 175 702 176 189 0 307 -16 435 -59 63 -21
135 -48 160 -59 25 -11 65 -28 90 -38 25 -10 52 -23 60 -30 8 -7 27 -16 43
-19 15 -4 30 -11 33 -16 3 -5 29 -9 57 -9 29 0 68 -5 87 -10 19 -6 108 -19
197 -30 89 -10 170 -23 180 -29 10 -5 56 -19 103 -31 47 -11 96 -25 110 -31
13 -6 43 -13 65 -15 47 -5 116 -24 130 -36 5 -4 25 -8 45 -8 19 0 54 -9 77
-20 39 -17 47 -18 90 -5 27 7 72 16 102 20 79 9 303 85 346 116 6 4 28 10 50
14 22 3 59 11 82 17 34 8 52 7 97 -7 59 -19 131 -16 209 7 31 9 47 9 85 -5 26
-9 79 -22 117 -28 160 -26 349 -114 446 -205 114 -109 218 -329 206 -438 -13
-110 -26 -195 -46 -281 -53 -227 -71 -335 -91 -540 -30 -307 -25 -346 83 -560
91 -183 164 -337 187 -394 28 -71 48 -180 39 -213 -3 -14 -5 -43 -3 -64 14
-144 11 -176 -31 -259 -22 -44 -73 -124 -114 -178 -80 -108 -116 -192 -100
-236 23 -59 5 -357 -36 -616 -12 -75 -34 -385 -33 -475 0 -14 -1 -55 -3 -93
-2 -55 -5 -65 -16 -55 -11 12 -21 52 -28 123 -1 17 -3 34 -4 38 -1 5 -6 5 -13
1 -6 -4 -8 -3 -4 4 3 6 2 13 -3 17 -6 3 -8 12 -4 20 3 8 -2 32 -10 54 -10 24
-12 42 -6 48 6 6 0 14 -16 23 -14 7 -25 17 -25 22 0 5 5 6 10 3 6 -3 10 -1 10
4 0 6 -5 11 -12 11 -9 0 -9 3 0 12 21 21 13 30 -23 26 -32 -4 -34 -2 -29 22
l5 25 -17 -22 c-14 -20 -18 -21 -31 -8 -18 18 -33 11 -33 -16 0 -13 5 -18 13
-14 6 4 5 1 -4 -7 -9 -7 -14 -23 -12 -36 2 -14 -1 -21 -7 -17 -12 8 -13 -5 -1
-24 5 -7 5 -29 0 -50 -9 -36 -12 -554 -4 -726 2 -49 6 -142 9 -205 3 -63 8
-164 11 -225 3 -60 7 -135 10 -165 5 -55 12 -161 21 -320 5 -91 4 -538 -1
-605 -1 -22 -6 -83 -9 -135 -4 -52 -9 -106 -11 -120 -23 -160 -23 -1042 1
-1285 8 -88 17 -167 19 -175 2 -8 7 -40 10 -70 4 -30 8 -57 11 -61 2 -4 5 -35
5 -68 1 -34 5 -61 10 -61 5 0 8 -13 7 -29 -1 -16 3 -35 10 -43 6 -8 9 -17 7
-20 -3 -3 -1 -17 4 -31 7 -18 7 -28 0 -33 -7 -4 -7 -9 -2 -13 15 -10 33 -159
33 -276 0 -104 26 -269 51 -317 5 -10 9 -23 9 -29 0 -15 56 -79 63 -72 3 2 10
-5 16 -16 6 -11 23 -33 37 -48 34 -37 321 -469 369 -556 42 -77 42 -103 0 -31
-62 105 -166 227 -227 267 -16 10 -28 24 -28 33 0 8 -4 13 -9 10 -5 -3 -20 5
-32 19 -13 13 -32 25 -41 25 -10 0 -18 5 -18 10 0 16 -28 12 -38 -5 -4 -9 -5
-41 -1 -73 10 -78 20 -152 24 -181 3 -14 12 -75 21 -135 35 -238 -6 -500 -105
-674 -20 -34 -43 -76 -52 -93 -17 -31 -70 -110 -79 -119 -3 -3 -35 -43 -72
-90 -67 -87 -233 -253 -323 -325 -27 -22 -52 -42 -55 -45 -21 -22 -230 -153
-290 -183 -120 -58 -312 -116 -450 -137 -180 -27 -446 -16 -622 25 -89 20
-181 67 -196 99 -6 14 -16 26 -22 26 -15 0 -10 87 8 130 16 40 36 56 76 66 17
3 36 12 43 19 16 17 89 15 85 -2 -1 -7 2 -13 8 -13 5 0 10 4 10 9 0 4 18 7 40
6 22 -1 43 2 46 6 3 5 10 9 15 9 6 0 7 -4 4 -10 -7 -11 18 -14 29 -3 9 9 46
11 46 3 0 -4 15 -6 33 -3 17 2 41 5 52 5 11 1 25 6 32 10 7 6 20 4 32 -4 17
-10 27 -10 53 1 18 7 44 14 58 15 14 1 32 5 40 8 47 19 168 52 184 50 11 -1
23 3 27 9 4 7 21 12 38 13 18 1 29 6 27 12 -3 7 6 10 21 8 17 -2 23 2 19 11
-3 9 0 12 10 8 10 -4 12 0 7 13 -4 11 -3 15 5 10 6 -3 13 -2 17 4 3 5 19 7 34
4 23 -5 30 -2 36 15 3 12 11 18 17 15 5 -3 16 4 25 16 8 12 21 19 29 16 8 -3
14 1 14 9 0 9 6 12 16 8 10 -4 17 1 21 15 3 12 11 18 18 16 7 -3 31 11 53 30
22 20 44 36 50 36 6 0 19 13 28 29 18 30 64 59 64 41 0 -6 5 -10 10 -10 6 0 8
11 4 25 -3 14 -2 25 3 25 18 0 52 36 58 63 4 15 13 27 21 27 8 0 14 6 14 13 0
9 3 8 9 -2 7 -11 11 -9 20 8 7 12 9 26 6 31 -3 6 -2 10 4 10 6 0 18 17 28 38
9 20 26 43 36 51 12 8 17 21 14 33 -4 15 -2 18 11 13 13 -5 14 -4 5 6 -9 9 -7
19 10 43 12 17 20 32 19 34 -2 1 -1 16 3 32 4 18 11 27 20 24 10 -4 13 6 13
41 -1 26 3 50 8 53 21 15 31 48 22 71 -7 21 -6 22 7 11 9 -8 15 -8 15 -2 0 6
-4 14 -10 17 -14 8 -13 45 1 45 8 0 8 5 -1 15 -10 12 -10 15 1 15 10 1 8 4 -4
11 -14 8 -15 14 -6 31 6 11 9 28 6 38 -2 9 0 25 5 34 6 10 5 16 -1 16 -5 0
-12 -6 -15 -12 -3 -7 -4 -4 -3 7 1 11 8 26 15 33 17 19 15 30 -5 28 -14 -1
-18 7 -18 34 0 19 4 38 9 41 5 4 5 13 0 20 -12 20 -12 63 0 71 7 5 4 12 -8 21
-11 8 -16 19 -12 25 4 7 4 12 -1 12 -4 0 -13 11 -20 25 -9 20 -8 28 2 38 9 9
10 19 3 30 -5 10 -6 22 -3 27 3 6 1 10 -5 10 -6 0 -9 4 -6 9 3 5 -5 12 -19 15
-16 4 -22 11 -19 21 4 8 1 22 -6 30 -7 9 -8 15 -2 15 13 0 23 26 16 44 -3 8
-11 13 -18 10 -14 -5 -15 43 -2 64 5 8 3 11 -6 10 -7 -2 -12 3 -10 10 1 6 -4
12 -10 12 -9 0 -8 3 2 10 12 7 12 12 2 22 -6 6 -12 21 -12 33 0 11 -10 36 -21
55 l-21 34 -14 -26 c-8 -14 -38 -37 -71 -54 -53 -26 -67 -28 -163 -27 -77 1
-128 8 -191 26 -173 48 -338 186 -419 351 l-43 87 6 118 c9 176 35 243 142
361 131 143 218 214 229 184 3 -8 0 -14 -6 -14 -7 0 -6 -5 2 -15 10 -12 9 -16
-4 -21 -9 -3 -16 -12 -16 -20 0 -8 -4 -14 -9 -14 -9 0 -37 -60 -33 -72 1 -5
-3 -8 -9 -8 -6 0 -22 -9 -36 -19 -13 -11 -31 -17 -39 -14 -8 3 -14 1 -14 -5 0
-6 5 -12 12 -14 7 -3 -2 -11 -20 -19 -18 -7 -32 -20 -32 -26 0 -7 -4 -13 -9
-13 -5 0 -11 -15 -15 -32 -3 -18 -7 -40 -9 -48 -2 -8 0 -28 5 -45 5 -16 11
-57 13 -90 6 -128 17 -190 40 -220 12 -16 25 -39 29 -50 11 -33 41 -63 67 -67
13 -2 23 -9 21 -16 -1 -8 11 -12 32 -12 19 0 38 -5 41 -10 4 -6 11 -8 16 -5 5
4 9 0 9 -7 0 -10 2 -10 8 -1 6 10 13 9 33 -1 23 -12 63 -13 134 -2 17 2 31 5
33 6 1 2 7 4 12 5 6 1 13 4 18 5 4 1 21 3 37 3 44 3 132 47 146 74 7 13 19 21
26 19 7 -3 18 4 24 15 8 16 7 25 -7 40 -10 11 -12 19 -6 19 7 0 12 -4 12 -8 0
-14 29 -10 34 5 5 12 8 12 20 1 8 -7 12 -16 9 -20 -2 -5 3 -8 12 -8 10 0 13
-5 9 -12 -5 -8 -2 -9 11 -4 10 4 21 2 25 -5 9 -14 -10 -91 -24 -101 -7 -5 -5
-8 4 -8 9 0 21 5 27 11 8 8 13 7 18 -2 5 -8 4 -10 -3 -5 -8 5 -12 0 -12 -13 0
-11 -8 -22 -17 -24 -14 -4 -12 -5 5 -6 12 0 22 5 22 12 0 8 9 22 21 33 12 11
18 26 15 37 -3 13 0 17 10 13 8 -3 14 -1 14 5 0 6 4 8 8 5 5 -3 21 6 37 20 23
20 31 22 43 11 13 -10 15 -9 10 11 -4 12 -2 22 4 22 5 0 7 4 4 9 -4 5 0 11 6
14 9 3 7 10 -7 21 -11 8 -15 16 -7 16 6 0 11 5 10 12 -2 6 8 15 22 19 14 4 21
7 17 8 -5 1 -5 7 0 14 4 6 8 19 10 27 1 8 9 20 19 27 15 11 15 13 -1 30 -11
11 -14 18 -6 21 15 5 14 32 -1 33 -9 0 -9 2 -2 5 6 3 9 16 6 29 -2 14 -8 22
-13 19 -5 -3 -9 0 -9 5 0 6 6 11 13 11 7 0 8 3 2 8 -5 4 -11 14 -13 21 -2 8
-15 25 -28 38 -14 13 -22 28 -18 35 5 8 -1 9 -21 4 -24 -6 -27 -5 -22 14 4 14
-3 29 -19 45 -13 13 -25 33 -25 45 -1 11 -2 24 -3 29 -1 11 -66 112 -83 129
-7 7 -13 17 -13 22 0 10 -91 31 -102 24 -4 -3 -8 5 -8 16 0 16 -5 20 -15 16
-8 -3 -15 -1 -15 5 0 6 -4 8 -9 5 -5 -4 -8 5 -7 18 2 14 -2 24 -8 23 -12 -2
-10 44 2 53 12 8 22 38 14 42 -4 2 -15 18 -25 37 -13 24 -15 37 -7 46 8 9 8
15 0 20 -15 10 -12 62 5 69 8 3 12 12 9 21 -3 8 -11 12 -17 8 -6 -4 -8 3 -3
21 5 19 3 26 -9 26 -8 0 -15 7 -15 16 0 8 5 12 10 9 15 -9 11 17 -5 39 -18 24
-20 45 -3 28 7 -7 17 -12 23 -12 5 0 4 4 -4 9 -13 9 -15 23 -8 90 2 18 -2 35
-8 37 -9 4 -13 88 -5 104 5 11 -3 46 -13 59 -10 12 -9 14 4 9 14 -6 16 -2 10
20 -5 19 -3 31 8 40 9 7 12 12 6 11 -23 -3 -25 3 -9 32 8 17 11 28 6 25 -6 -3
-12 1 -16 9 -3 8 -1 17 3 20 10 6 9 65 -2 82 -4 7 -3 29 2 49 7 24 7 43 0 55
-7 15 -6 17 6 13 10 -4 15 0 15 10 0 9 -8 16 -17 16 -14 0 -15 2 -5 9 8 5 12
17 10 27 -2 11 3 24 12 31 12 10 12 12 1 13 -11 0 -11 3 0 16 10 13 10 17 0
24 -11 6 -11 15 -3 37 6 19 6 36 0 46 -5 10 -5 17 0 17 5 0 7 11 4 25 -2 14
-8 25 -13 25 -5 0 -2 11 7 25 10 15 12 25 5 25 -6 0 -11 13 -11 28 0 15 -5 33
-12 40 -9 9 -7 12 10 12 12 0 22 5 22 11 0 5 -3 8 -8 5 -4 -2 -16 3 -27 11
-20 15 -20 15 2 10 17 -4 23 1 28 20 6 25 1 37 -16 39 -5 1 -11 2 -13 3 -3 0
0 15 6 31 7 23 7 34 -2 45 -9 11 -9 15 -1 15 8 0 9 5 2 19 -6 10 -7 22 -3 26
4 5 -1 5 -10 2 -12 -4 -15 -2 -11 8 3 10 13 13 32 9 l26 -6 -22 16 c-24 18
-30 42 -13 48 6 2 2 13 -9 25 -16 17 -17 22 -6 27 8 3 15 -2 17 -12 2 -10 6
-13 10 -6 4 6 1 22 -7 37 -7 14 -11 28 -7 31 3 3 0 6 -6 6 -16 0 -15 42 1 59
7 9 8 12 0 7 -7 -4 -9 1 -6 14 3 11 10 17 17 13 6 -3 4 2 -5 13 -9 10 -19 35
-22 54 -4 19 -9 45 -13 58 -5 19 -3 21 12 15 16 -5 17 -4 7 8 -12 15 -11 61 1
91 5 11 1 20 -13 28 -21 11 -24 50 -7 79 5 8 3 16 -4 21 -8 5 -10 18 -6 36 11
49 11 59 1 57 -12 -2 -13 6 -18 92 -2 34 -6 66 -10 72 -4 6 -1 13 5 16 10 3
11 11 1 37 -10 27 -10 36 0 42 8 5 8 8 1 8 -16 0 -24 46 -11 59 8 8 4 11 -14
11 -21 1 -22 2 -6 11 9 6 15 14 12 19 -3 5 -1 18 5 29 8 16 6 23 -12 37 -18
13 -19 15 -4 10 15 -5 17 -2 12 19 -4 16 -2 25 5 25 8 0 8 4 -1 15 -7 8 -10
24 -7 35 3 11 1 23 -4 26 -6 3 -7 14 -4 25 4 10 3 19 -2 19 -4 0 -9 17 -11 38
-1 20 -7 39 -13 41 -8 2 -7 6 2 11 10 7 10 11 0 24 -10 11 -10 16 -2 16 9 0 9
5 0 22 -8 16 -9 23 -1 26 6 2 8 10 5 19 -4 10 -2 14 4 10 5 -3 10 0 10 8 0 8
-5 11 -10 8 -6 -4 -7 4 -3 21 3 14 2 26 -3 26 -5 0 -11 9 -14 21 -4 15 -2 19
9 15 19 -7 18 3 -2 26 -14 14 -14 20 -4 33 10 12 10 18 0 30 -10 12 -9 15 6
16 18 0 18 1 0 8 -14 5 -16 10 -8 15 17 10 15 26 -4 26 -13 0 -11 6 7 33 20
28 21 30 3 15 -25 -22 -41 -24 -24 -3 7 8 10 22 6 30 -3 8 -1 15 5 15 6 0 6 7
1 18 -5 9 -6 28 -2 42 8 29 2 60 -12 60 -5 0 -7 -4 -4 -9 3 -5 -1 -11 -9 -15
-8 -3 -17 -1 -20 4 -4 6 -1 10 5 10 7 0 10 7 6 15 -3 8 0 14 7 12 15 -3 17 45
2 55 -6 5 -6 8 3 8 6 0 12 9 12 20 0 11 -6 20 -12 20 -9 0 -8 4 2 10 13 8 13
13 2 31 -11 16 -11 23 -2 29 8 5 7 9 -5 13 -13 5 -14 11 -5 27 7 13 7 20 0 20
-14 0 -13 37 3 43 9 3 9 9 0 28 -16 34 -24 77 -15 83 12 7 7 53 -7 70 -8 9 -9
16 -4 16 5 0 9 27 9 60 0 33 -4 60 -8 60 -4 0 -8 -10 -8 -22 0 -17 -3 -19 -12
-10 -9 9 -8 16 4 29 26 31 31 43 14 37 -13 -5 -15 0 -10 26 5 21 3 35 -6 40
-7 5 -9 13 -4 21 6 10 11 5 20 -16 7 -17 13 -23 14 -15 0 8 3 26 7 40 5 21 4
23 -8 14 -8 -6 -22 -8 -33 -5 -17 7 -16 9 7 24 18 11 24 23 20 33 -5 14 -3 15
17 4 19 -10 22 -10 18 1 -4 11 5 14 36 14 33 0 43 4 51 22 7 16 15 21 27 17
10 -3 18 0 18 6 0 6 4 9 9 5 5 -3 12 -1 15 4 9 14 83 50 90 44 3 -4 6 -2 6 3
0 6 16 16 35 23 19 7 35 16 35 20 0 5 15 14 33 22 93 37 323 274 301 310 -3 5
-1 9 4 9 5 0 9 6 9 13 0 9 -11 13 -29 12 -33 -2 -36 3 -8 13 13 5 17 11 11 21
-7 10 -23 -2 -67 -49 -132 -142 -193 -198 -266 -248 -43 -29 -82 -52 -88 -52
-5 0 -10 -3 -10 -8 0 -4 -15 -13 -32 -21 -18 -8 -39 -19 -47 -25 -7 -6 -19
-11 -25 -11 -6 -1 -45 -12 -86 -25 -75 -24 -181 -31 -315 -21 -80 6 -195 47
-286 101 -177 107 -282 250 -335 456 -26 106 -30 173 -13 289 19 143 135 431
205 512 13 15 27 36 30 46 3 9 10 17 15 17 5 0 22 11 36 24 14 13 37 30 52 37
14 7 36 25 49 39 13 14 24 24 25 22 4 -8 117 38 117 47 0 3 19 15 41 26 23 10
44 25 46 32 3 8 13 11 24 8 11 -4 19 -2 19 3 0 6 10 8 23 5 12 -3 19 -3 15 1
-7 8 26 46 40 46 8 0 52 54 52 64 0 3 -7 3 -16 -1 -15 -6 -15 -4 0 19 15 23
15 25 -14 53 -17 16 -30 39 -30 52 0 14 -6 23 -16 23 -8 0 -13 4 -9 9 3 5 0
13 -6 16 -5 4 -8 13 -5 21 5 13 -6 19 -28 15 -5 -1 -6 5 -2 14 3 9 2 13 -4 10
-5 -3 -18 -1 -27 4 -17 10 -17 10 0 11 9 0 17 5 17 11 0 6 -6 9 -13 6 -14 -5
-41 19 -29 27 14 9 2 65 -13 60 -7 -3 -16 -1 -20 5 -3 6 -1 11 5 11 6 0 10 10
8 23 -2 12 -7 21 -11 19 -11 -4 -45 39 -42 53 1 5 0 7 -2 3 -3 -5 -13 -8 -22
-8 -13 0 -18 7 -16 25 2 13 -4 30 -12 37 -14 11 -15 10 -9 -9 4 -12 2 -24 -4
-28 -6 -4 -10 -3 -9 2 3 18 -2 30 -22 52 -15 16 -24 19 -29 11 -5 -8 -9 -7
-13 4 -4 11 -1 16 10 16 25 0 7 13 -22 16 -14 1 -25 -1 -25 -6 0 -4 -9 -6 -20
-3 -11 3 -20 9 -20 14 0 12 -47 11 -55 -1 -3 -5 -12 -7 -20 -3 -9 3 -15 -1
-15 -8 0 -10 -3 -10 -12 -1 -17 17 -31 15 -24 -3 4 -12 2 -13 -13 -6 -10 6
-21 7 -25 4 -3 -3 -14 1 -23 9 -11 10 -35 16 -61 15 -26 -1 -47 4 -52 12 -4 7
-14 11 -21 9 -8 -3 -22 -1 -31 4 -15 7 -18 4 -19 -14 -1 -17 -3 -18 -6 -5 -5
20 -19 22 -26 5 -4 -8 -6 -7 -6 3 -1 9 -7 22 -15 28 -12 10 -13 8 -9 -8 3 -12
1 -21 -6 -21 -6 0 -11 6 -11 13 0 8 -3 8 -9 -2 -8 -12 -12 -12 -25 -2 -8 7
-21 9 -27 5 -9 -5 -7 -10 7 -15 10 -4 -11 -5 -48 -2 -50 4 -68 3 -68 -6 0 -7
-5 -9 -10 -6 -8 5 -7 12 2 23 12 14 9 15 -22 9 -18 -4 -38 -13 -42 -20 -6 -8
-10 -5 -15 12 -6 22 -7 23 -19 6 -14 -19 -114 -31 -114 -14 0 6 -7 6 -19 0
-20 -11 -31 -6 -27 12 2 7 1 9 -1 5 -3 -5 -14 -8 -24 -8 -11 0 -18 -4 -15 -8
2 -4 -11 -6 -30 -4 -22 3 -34 0 -34 -8 0 -9 -8 -7 -25 4 -14 9 -25 12 -25 8 0
-5 -11 -7 -25 -4 -14 2 -25 0 -25 -5 0 -6 -23 -8 -57 -6 -32 3 -66 5 -76 4
-12 0 -17 5 -13 15 3 8 -1 14 -9 14 -7 0 -15 -10 -17 -22 l-3 -23 -24 24 c-20
20 -27 22 -43 12 -11 -7 -29 -9 -41 -5 -22 6 -22 6 -2 -9 19 -15 18 -15 -13
-13 -34 2 -39 -3 -20 -22 9 -9 8 -12 -4 -12 -9 0 -19 6 -22 13 -3 9 -8 7 -16
-5 -6 -10 -18 -15 -28 -12 -14 5 -14 4 -2 -5 8 -5 11 -13 7 -17 -4 -4 -13 -2
-19 4 -17 17 -24 15 -24 -8 0 -11 4 -20 9 -20 5 0 1 -7 -7 -15 -14 -14 -32
-18 -109 -24 -11 0 -15 -6 -11 -12 5 -8 -1 -10 -19 -7 -21 4 -27 0 -31 -19 -4
-12 -11 -23 -17 -23 -6 0 -7 5 -4 10 9 15 0 12 -23 -9 -12 -10 -22 -24 -22
-30 0 -7 -4 -10 -9 -6 -5 3 -12 1 -16 -5 -7 -11 -166 -90 -181 -90 -6 0 -29
-9 -53 -21 -24 -11 -66 -24 -94 -29 -64 -10 -109 -21 -122 -29 -18 -10 -215
-17 -250 -8 -54 14 -168 56 -178 66 -6 6 -17 11 -24 11 -25 0 -153 98 -153
118 0 7 -5 10 -10 7 -6 -3 -13 1 -16 9 -3 9 -10 14 -14 11 -4 -3 -13 2 -20 10
-8 10 -9 15 -2 15 6 0 0 11 -14 25 -14 14 -29 25 -33 25 -5 0 -23 14 -41 30
-18 17 -41 30 -51 30 -10 0 -18 6 -17 13 2 7 -5 11 -15 9 -12 -2 -21 4 -24 17
-3 12 -14 21 -24 21 -12 0 -23 10 -29 25 -5 14 -17 25 -27 25 -10 0 -27 7 -37
15 -11 8 -26 15 -34 15 -8 0 -23 12 -34 26 -13 16 -24 22 -30 16 -7 -7 -22 -3
-43 9 -18 11 -40 17 -49 13 -10 -4 -16 -1 -16 9 0 10 -10 15 -32 15 -18 0 -46
5 -61 11 -16 6 -33 9 -38 5 -5 -3 -9 0 -9 5 0 6 -9 11 -19 11 -11 0 -22 4 -25
9 -4 5 -30 12 -59 16 -60 7 -137 34 -137 46 0 5 -7 9 -15 9 -8 0 -15 7 -15 15
0 14 -12 20 -34 16 -19 -4 -46 11 -46 26 0 8 -6 13 -12 10 -7 -2 -25 2 -40 9
-15 8 -33 11 -41 8 -8 -3 -35 0 -58 6 -24 7 -55 14 -68 17 -13 2 -32 8 -42 14
-10 5 -38 11 -61 14 -140 14 -164 18 -189 30 -14 8 -28 12 -31 10 -19 -19
-208 -6 -208 15 0 4 -16 7 -35 8 -20 1 -40 4 -45 7 -6 4 -10 1 -10 -6 0 -8 -6
-6 -18 4 -10 10 -31 17 -47 17 -15 0 -34 8 -41 18 -13 16 -15 16 -28 0 -11
-16 -18 -16 -47 -6 -19 6 -41 20 -49 30 -11 14 -32 20 -79 22 -35 3 -67 9 -70
14 -10 16 -75 52 -93 52 -10 0 -27 9 -38 20 -11 11 -24 20 -28 20 -5 0 -18 14
-31 30 -12 17 -27 30 -34 29 -15 -3 -60 19 -114 54 -24 15 -54 27 -68 27 -14
0 -60 16 -101 35 -41 19 -78 35 -83 35 -16 0 -113 69 -133 95 -11 14 -16 25
-12 25 26 0 -100 80 -128 80 -28 1 -50 31 -73 97 -16 46 -38 83 -65 112 -36
38 -42 41 -56 27 -8 -8 -13 -19 -12 -23 2 -4 -7 -9 -20 -11 -22 -3 -42 -35
-42 -66 0 -15 67 -49 81 -41 5 4 16 2 25 -3 16 -9 15 -9 -94 -27 -13 -2 -37 1
-54 6 -21 6 -36 5 -45 -2 -20 -17 -16 -25 24 -50 20 -13 31 -25 25 -27 -7 -2
-10 -13 -6 -28 5 -18 1 -25 -12 -30 -11 -4 -37 -15 -60 -25 -37 -17 -55 -18
-225 -11 -215 9 -238 9 -264 -5 -17 -10 -14 -13 25 -23 65 -16 70 -18 70 -30
0 -6 -8 -9 -17 -6 -10 3 -31 8 -48 11 -73 15 -115 28 -115 37 0 5 13 7 30 3
37 -8 40 2 5 15 -18 7 -31 6 -44 -2 -15 -9 -25 -7 -53 10 -37 23 -208 58 -353
73 -49 5 -115 14 -145 20 -30 6 -65 13 -77 15 -13 2 -22 10 -20 17 3 15 -19
12 -95 -14 -65 -22 -116 -24 -153 -7 -31 14 -31 21 -2 37 19 10 32 10 63 1 22
-6 53 -10 69 -8 30 4 27 8 -22 23 -14 5 -14 7 3 20 25 19 70 19 77 1 3 -8 1
-17 -6 -19 -7 -2 19 -4 57 -4 46 0 71 -5 76 -14 7 -11 17 -11 59 0 33 8 56 9
68 3 24 -13 175 -14 168 -1 -4 5 -26 9 -51 9 -25 0 -72 9 -106 21 -33 11 -72
18 -87 15 -14 -3 -33 -2 -41 3 -11 8 -9 12 13 20 14 6 44 11 64 12 21 1 42 5
48 8 5 2 20 6 33 7 13 2 32 10 41 18 10 9 23 16 29 16 6 0 26 8 44 18 18 10
44 21 58 24 14 3 63 17 110 30 85 25 154 41 220 53 19 4 58 13 85 20 138 37
179 46 290 61 66 9 149 15 185 15 36 0 70 3 77 7 24 15 444 6 558 -12z m-4060
-261 c195 -24 223 -26 229 -16 4 5 19 5 38 0 75 -19 177 -49 204 -60 31 -12
157 -41 286 -65 43 -8 125 -15 183 -16 58 -2 105 -5 105 -8 0 -3 19 -6 43 -6
97 -3 107 -4 107 -18 0 -9 14 -13 48 -12 32 1 46 5 45 14 -2 6 2 12 7 12 6 0
10 -7 10 -16 0 -10 6 -14 14 -11 8 3 16 2 18 -2 2 -5 26 -11 53 -14 43 -6 46
-5 21 4 -36 14 -16 30 29 23 23 -4 27 -3 15 5 -11 8 0 11 45 11 33 0 75 4 93
9 20 6 32 6 32 0 0 -5 -12 -9 -26 -9 -15 0 -23 -4 -19 -10 4 -7 -2 -9 -19 -4
-15 4 -26 2 -26 -4 0 -6 -8 -12 -17 -14 -19 -4 56 -13 210 -24 49 -3 86 -8 84
-10 -5 -5 -88 -5 -157 0 -25 2 -69 -3 -99 -10 -30 -8 -57 -10 -60 -6 -7 9
-191 10 -191 1 0 -12 83 -28 175 -34 195 -12 245 -17 295 -30 82 -22 79 -33
-5 -20 -42 7 -78 8 -81 4 -3 -5 -35 -9 -72 -10 -37 0 -61 -3 -53 -6 10 -4 10
-7 2 -13 -7 -4 30 -7 81 -7 51 -1 105 -6 120 -12 16 -6 37 -7 49 -2 22 8 126
-16 184 -43 17 -7 47 -17 67 -20 20 -4 57 -15 81 -26 23 -11 53 -17 65 -13 15
3 24 0 28 -11 3 -9 14 -16 25 -16 10 0 41 -9 70 -20 59 -24 304 -39 338 -21
27 15 235 16 301 2 100 -20 235 -43 258 -43 12 0 22 -4 22 -8 0 -4 19 -8 43
-8 23 0 53 -4 67 -9 14 -6 31 -8 39 -5 8 3 19 -2 25 -10 10 -12 72 -36 117
-44 9 -2 29 -9 45 -15 16 -7 32 -12 36 -11 4 1 22 -7 40 -18 18 -11 43 -20 55
-20 12 0 45 -9 73 -20 61 -24 64 -24 57 -5 -4 8 -2 17 3 20 9 6 14 -15 11 -42
-1 -7 7 -13 19 -13 21 0 27 14 10 25 -20 12 -9 25 15 19 16 -4 25 -2 25 5 0
13 53 3 58 -11 2 -4 14 -8 26 -8 13 0 33 -9 45 -19 13 -11 26 -21 30 -23 13
-5 53 -77 47 -86 -2 -4 4 -8 14 -9 10 -1 38 -11 62 -24 121 -60 139 -69 147
-69 5 0 22 -13 37 -28 31 -31 150 -74 185 -67 12 2 32 -3 45 -11 12 -9 28 -13
33 -10 5 4 12 3 15 -2 3 -5 19 -7 36 -4 18 2 30 0 30 -7 0 -16 57 -42 114 -51
28 -5 80 -16 116 -25 36 -9 88 -21 115 -26 70 -14 69 -14 82 -22 7 -5 45 -11
84 -14 62 -5 72 -9 80 -30 4 -12 15 -23 24 -23 8 0 15 -4 15 -9 0 -4 18 -11
40 -14 26 -3 48 -15 66 -33 14 -16 32 -28 40 -26 8 2 14 -2 14 -8 0 -5 6 -10
14 -10 8 0 21 -9 28 -19 8 -11 27 -21 42 -24 15 -2 43 -15 61 -30 19 -15 39
-27 44 -27 6 0 11 -3 11 -8 0 -4 15 -14 33 -22 37 -16 35 -15 132 -97 8 -7 17
-13 20 -13 8 0 86 -63 143 -115 24 -22 56 -51 72 -65 17 -14 30 -32 30 -41 0
-10 16 -23 39 -32 23 -10 41 -24 44 -37 3 -12 14 -24 24 -26 11 -3 27 -21 38
-40 10 -19 21 -34 25 -34 11 0 50 -36 50 -47 0 -5 8 -18 18 -29 33 -36 62 -82
62 -99 0 -9 5 -13 10 -10 9 5 14 -21 13 -62 -1 -7 3 -11 7 -8 5 3 11 1 14 -4
4 -5 2 -12 -3 -16 -7 -4 -6 -15 1 -31 9 -20 17 -24 36 -19 27 7 62 -21 54 -43
-2 -6 5 -15 15 -19 10 -4 24 -15 31 -25 7 -10 18 -18 23 -18 18 0 81 -53 89
-74 9 -26 -13 -72 -37 -80 -10 -3 -55 -8 -101 -12 -49 -4 -98 -14 -120 -26
-22 -11 -38 -14 -40 -8 -2 5 -12 10 -22 10 -23 0 -78 62 -86 98 -4 15 -11 32
-15 38 -11 13 6 75 23 86 10 6 6 14 -14 31 -27 22 -39 67 -17 67 5 0 9 -8 7
-17 -3 -19 9 -43 20 -43 4 0 8 8 9 18 0 9 3 43 7 75 6 52 4 61 -20 92 -25 33
-54 46 -54 25 0 -23 -19 -8 -25 21 -4 17 -13 33 -21 36 -8 3 -14 12 -14 20 0
18 -95 165 -132 204 -14 15 -28 34 -31 42 -3 8 -23 28 -44 43 -52 39 -82 71
-74 80 3 4 1 4 -6 0 -10 -6 -49 23 -128 97 -17 15 -37 27 -47 27 -9 0 -24 3
-33 6 -13 5 -15 2 -9 -22 4 -16 13 -37 21 -46 8 -9 12 -21 9 -27 -4 -5 3 -15
14 -21 11 -6 20 -17 20 -25 0 -8 7 -15 15 -15 9 0 20 -11 25 -25 5 -14 14 -25
20 -25 5 0 10 -6 10 -13 0 -7 10 -22 23 -34 31 -28 62 -66 70 -86 3 -9 14 -17
23 -17 10 0 15 -3 11 -6 -3 -4 8 -25 26 -48 18 -22 42 -58 52 -79 11 -21 30
-48 43 -59 12 -12 22 -27 22 -35 0 -7 5 -13 11 -13 5 0 16 -15 24 -34 8 -19
19 -37 25 -41 5 -3 10 -15 10 -26 0 -10 5 -19 10 -19 6 0 10 5 10 10 0 27 28
5 40 -30 9 -27 18 -39 27 -36 10 4 11 1 4 -13 -6 -11 -7 -30 -2 -48 5 -17 7
-51 5 -76 -2 -33 1 -47 11 -51 8 -3 12 -12 9 -21 -4 -8 -1 -15 6 -15 9 0 11
-10 5 -37 -8 -41 -18 -202 -19 -298 -1 -35 7 -85 19 -120 16 -48 19 -86 19
-195 -1 -209 -6 -239 -47 -307 -21 -34 -37 -64 -37 -68 0 -3 -30 -45 -67 -92
-42 -55 -86 -98 -121 -120 -63 -40 -269 -126 -287 -119 -7 2 -66 -4 -131 -14
-66 -10 -126 -14 -134 -10 -8 5 -26 2 -42 -6 -25 -13 -44 -13 -163 0 -21 3
-45 0 -53 -6 -8 -7 -16 -8 -20 -2 -11 15 -74 17 -83 2 -7 -10 -11 -10 -17 -1
-8 12 -66 22 -152 28 -19 1 -37 3 -40 4 -3 2 -12 4 -20 6 -61 16 -180 63 -269
106 -121 59 -193 89 -235 96 -16 3 -37 13 -46 22 -34 31 -64 51 -77 51 -16 0
-135 123 -199 206 -25 32 -54 67 -65 77 -10 10 -19 22 -19 27 0 5 -13 24 -30
42 -37 40 -37 34 -2 -45 27 -58 136 -203 179 -237 114 -91 154 -115 353 -215
129 -65 187 -89 285 -119 50 -15 109 -33 132 -41 26 -8 45 -10 48 -4 4 5 14 5
26 -1 10 -6 19 -8 19 -6 0 3 17 -1 38 -8 45 -16 169 -32 313 -42 140 -8 371
11 542 46 116 24 151 36 214 72 90 51 187 151 270 278 31 47 64 96 73 110 37
56 42 70 28 87 -10 13 -12 67 -11 242 2 135 -1 248 -8 281 -26 132 -29 154
-17 168 19 23 84 9 121 -26 18 -17 49 -45 70 -63 23 -20 34 -35 27 -39 -17
-10 6 -59 32 -70 13 -5 20 -9 15 -9 -4 -1 -1 -11 8 -24 8 -12 16 -43 18 -67 5
-61 18 -89 64 -132 52 -50 182 -98 262 -95 46 1 66 -4 104 -27 47 -27 96 -83
124 -141 7 -16 29 -55 48 -85 35 -55 48 -117 23 -106 -7 2 -30 10 -51 17 -34
11 -39 10 -58 -9 -17 -19 -49 -30 -49 -18 0 18 15 36 31 36 27 0 34 26 15 53
-9 12 -35 50 -58 84 -38 55 -48 65 -92 77 -28 8 -51 14 -52 13 -1 -1 2 -27 7
-57 5 -32 5 -58 0 -63 -10 -10 -68 2 -186 36 -86 25 -234 29 -260 7 -16 -13
-13 -16 26 -33 24 -10 63 -25 87 -32 36 -11 42 -11 42 1 0 13 23 19 63 16 9
-1 17 3 17 9 0 17 50 4 122 -31 95 -45 110 -61 102 -108 -6 -37 -4 -40 30 -61
20 -13 36 -26 36 -31 0 -13 -23 -25 -41 -22 -17 3 -56 -35 -46 -45 4 -3 17 -1
30 5 27 14 77 12 95 -5 7 -7 29 -15 50 -18 159 -27 345 -150 434 -288 94 -146
217 -517 248 -747 6 -47 16 -98 21 -115 10 -30 23 -109 59 -365 10 -74 23
-165 29 -202 6 -37 14 -93 17 -125 4 -32 13 -70 20 -85 8 -15 14 -47 14 -72 0
-39 -2 -44 -20 -39 -12 3 -22 0 -24 -8 -8 -25 -20 -439 -20 -689 0 -287 26
-593 59 -697 6 -18 2 -25 -18 -32 -13 -5 -27 -15 -29 -23 -5 -13 8 -120 37
-298 17 -111 19 -160 5 -160 -6 0 -8 -10 -5 -22 11 -47 27 -206 32 -303 2 -55
11 -132 19 -172 9 -40 17 -98 19 -130 1 -32 6 -77 10 -100 5 -28 4 -43 -3 -43
-16 0 -52 50 -52 71 0 10 -9 23 -19 29 -26 13 -27 13 -49 -10 -17 -18 -18 -28
-10 -78 5 -31 7 -70 3 -87 -5 -30 22 -126 70 -245 13 -30 28 -79 35 -107 7
-29 20 -63 29 -75 73 -96 127 -313 151 -603 5 -60 12 -128 15 -150 8 -51 11
-238 5 -288 -2 -20 -9 -38 -15 -38 -5 -1 -14 -2 -20 -4 -5 -1 -16 -3 -22 -3
-10 -2 -11 -26 -8 -94 3 -51 8 -106 12 -123 3 -16 7 -39 9 -50 1 -11 9 -60 18
-110 10 -49 21 -117 26 -150 32 -199 98 -515 145 -690 25 -92 55 -292 49 -323
-4 -18 1 -53 11 -86 l18 -56 -37 -44 c-28 -34 -46 -47 -74 -52 -40 -6 -117
-26 -198 -51 -37 -11 -70 -13 -117 -9 -42 5 -67 3 -72 -3 -3 -6 -22 -11 -42
-11 -26 0 -36 5 -40 20 -7 26 -23 26 -23 0 0 -11 -3 -20 -7 -21 -5 0 -21 -2
-36 -4 -22 -3 -27 0 -23 11 7 19 -33 19 -61 -1 -44 -31 -253 -8 -336 36 -10 6
-32 7 -48 4 -21 -5 -56 2 -112 21 -72 24 -90 35 -147 92 l-64 65 -61 -6 c-33
-4 -88 -16 -122 -27 -55 -19 -71 -31 -144 -111 -129 -142 -341 -287 -397 -272
-14 3 -34 -5 -59 -24 -21 -17 -47 -35 -58 -40 -47 -24 -176 -44 -385 -58 -388
-26 -860 -17 -1205 25 -272 33 -403 42 -606 42 -261 1 -485 -25 -564 -65 -31
-16 -56 -17 -403 -23 -409 -8 -793 15 -927 54 -53 16 -109 49 -143 86 -27 28
-39 35 -58 30 -15 -4 -38 1 -61 13 -21 11 -56 26 -78 33 -21 7 -62 28 -91 46
-59 38 -204 98 -260 108 -21 4 -57 13 -79 21 -122 43 -365 34 -795 -30 -157
-23 -214 -29 -243 -26 -21 2 -56 -14 -120 -53 -103 -62 -257 -122 -426 -166
-88 -23 -134 -30 -210 -30 -105 0 -273 30 -300 53 -9 8 -35 15 -58 15 -96 -1
-319 143 -383 247 -12 20 -50 119 -86 220 -76 222 -95 331 -96 554 -1 247 19
412 68 554 19 55 27 106 34 217 9 133 24 234 64 425 9 39 22 174 31 300 9 127
22 268 30 315 26 149 36 288 40 565 5 342 -1 396 -66 542 -28 62 -51 123 -53
135 -1 13 -10 41 -20 63 -54 119 -91 208 -113 275 -38 117 -43 135 -43 162 0
14 -9 33 -20 43 -26 24 -25 41 6 95 14 25 32 64 40 88 8 23 25 58 37 77 62 97
77 125 95 185 11 36 23 86 27 112 3 26 15 72 26 102 21 61 24 86 9 86 -5 0
-17 -12 -27 -26 -10 -14 -32 -39 -49 -55 -22 -21 -35 -46 -44 -87 -7 -31 -32
-102 -55 -157 -23 -55 -50 -134 -59 -175 -22 -95 -25 -104 -32 -97 -16 16 -22
92 -14 182 13 141 58 283 141 442 l69 131 -4 114 c-2 62 -9 136 -16 163 -6 28
-18 84 -25 125 -8 41 -28 125 -45 185 -16 61 -39 150 -51 199 -11 49 -22 93
-25 97 -5 9 -36 224 -60 422 -8 73 -22 159 -29 192 -18 77 -18 152 -5 465 17
401 19 441 41 735 6 72 16 234 24 360 10 167 21 261 39 345 47 213 75 353 86
429 19 127 80 402 105 473 13 37 54 186 90 330 36 145 70 278 75 297 11 43 2
65 -66 162 -124 177 -184 369 -184 592 0 275 198 583 530 828 76 56 188 108
285 133 153 39 233 43 410 21z m2105 -35 c-8 -5 -19 -10 -25 -10 -5 0 -3 5 5
10 8 5 20 10 25 10 6 0 3 -5 -5 -10z m-483 -106 c-3 -3 -12 -4 -19 -1 -8 3 -5
6 6 6 11 1 17 -2 13 -5z m256 -1 c-7 -2 -19 -2 -25 0 -7 3 -2 5 12 5 14 0 19
-2 13 -5z m-313 -13 c0 -5 -5 -10 -11 -10 -5 0 -7 5 -4 10 3 6 8 10 11 10 2 0
4 -4 4 -10z m-333 -16 c-3 -3 -12 -4 -19 -1 -8 3 -5 6 6 6 11 1 17 -2 13 -5z
m168 -4 c4 -6 -14 -10 -42 -10 -26 0 -43 4 -36 8 18 11 72 12 78 2z m340 -10
c-22 -4 -49 -4 -60 1 -13 5 0 8 40 7 56 0 58 -1 20 -8z m368 -41 c14 -1 9 -4
-13 -9 -19 -5 -46 -12 -59 -16 -17 -5 -22 -4 -17 4 4 7 16 12 27 12 13 0 18 4
13 12 -5 8 -2 9 10 5 10 -4 27 -8 39 -8z m57 -109 c93 4 123 1 131 -11 6 -10
2 -15 -17 -17 -36 -5 -167 17 -179 30 -7 7 -1 9 20 4 17 -4 37 -7 45 -6z m355
-105 c44 -1 108 -9 143 -18 76 -20 75 -20 66 -4 -6 10 -4 10 7 0 7 -7 23 -13
35 -13 12 0 25 -7 28 -16 5 -13 -3 -15 -67 -10 -39 3 -132 10 -206 15 -101 7
-138 14 -152 27 -27 24 -13 38 30 28 20 -4 72 -8 116 -9z m1275 -205 c8 -5 11
-10 5 -10 -5 0 -3 -5 5 -10 21 -13 0 -31 -28 -24 -12 4 -22 13 -22 20 0 8 -4
14 -10 14 -5 0 -10 5 -10 10 0 13 40 13 60 0z m156 -36 c40 -31 44 -54 10 -54
-17 0 -26 7 -30 25 -4 14 -11 25 -16 25 -6 0 -10 7 -10 15 0 21 6 19 46 -11z
m2255 -1221 c13 -15 12 -15 -8 -4 -24 12 -29 21 -14 21 5 0 15 -7 22 -17z
m624 -1008 c102 -5 165 -23 165 -45 0 -8 -26 -41 -57 -73 l-56 -58 -36 29
c-20 16 -46 34 -58 40 -12 7 -29 30 -39 52 -10 22 -21 40 -26 40 -4 0 -8 7 -8
15 0 8 6 12 13 10 6 -3 53 -7 102 -10z m1507 -1316 c16 -12 32 -18 36 -15 3 4
14 -17 24 -45 10 -29 14 -57 10 -61 -11 -11 -92 29 -124 63 -59 61 -16 108 54
58z m1973 -169 c3 -5 1 -10 -4 -10 -6 0 -11 5 -11 10 0 6 2 10 4 10 3 0 8 -4
11 -10z m-1884 -47 c19 -49 32 -131 25 -157 -14 -55 -116 -17 -116 43 0 35 24
113 34 109 4 -2 12 5 17 15 14 25 28 21 40 -10z m1989 -1134 c0 -6 -4 -7 -10
-4 -5 3 -10 11 -10 16 0 6 5 7 10 4 6 -3 10 -11 10 -16z m30 -223 c0 -3 -4 -8
-10 -11 -5 -3 -10 -1 -10 4 0 6 5 11 10 11 6 0 10 -2 10 -4z m906 -273 c6 -34
-21 -92 -30 -62 -24 80 -35 135 -39 194 l-6 70 34 -85 c19 -47 37 -99 41 -117z
m-3242 125 c6 -33 3 -68 -6 -68 -4 0 -8 13 -8 29 0 16 -3 36 -6 45 -3 9 -1 16
5 16 6 0 13 -10 15 -22z m2383 -1040 c-3 -7 -5 -2 -5 12 0 14 2 19 5 13 2 -7
2 -19 0 -25z m779 -1585 c-7 -7 -26 7 -26 19 0 6 6 6 15 -2 9 -7 13 -15 11
-17z m-944 5 c12 -7 31 -21 42 -30 10 -10 24 -14 29 -11 6 4 8 0 5 -8 -3 -9 5
-25 18 -38 13 -13 21 -27 18 -32 -3 -6 0 -16 6 -24 18 -21 8 -155 -13 -185 -9
-13 -17 -30 -17 -36 0 -22 -89 -92 -126 -99 -110 -20 -254 80 -254 177 0 38
54 139 105 196 81 91 138 118 187 90z m974 -100 c27 -92 27 -91 15 -84 -6 4
-11 16 -11 27 0 11 -4 17 -10 14 -5 -3 -10 3 -10 14 0 12 -4 21 -9 21 -10 0
-21 57 -13 65 13 13 21 1 38 -57z m-406 -53 c0 -8 -4 -15 -10 -15 -5 0 -10 7
-10 15 0 8 5 15 10 15 6 0 10 -7 10 -15z m533 -355 c-3 -11 -7 -20 -9 -20 -2
0 -4 9 -4 20 0 11 4 20 9 20 5 0 7 -9 4 -20z m-45 -133 c-9 -18 -25 -57 -37
-87 -25 -61 -71 -144 -77 -137 -6 5 55 148 71 167 11 13 27 52 30 70 1 13 18
31 23 25 3 -3 -1 -20 -10 -38z m246 -1003 c3 -8 2 -12 -4 -9 -6 3 -10 10 -10
16 0 14 7 11 14 -7z m-2804 -1843 c0 -5 -9 -7 -20 -4 -11 3 -20 7 -20 9 0 2 9
4 20 4 11 0 20 -4 20 -9z"/>
<path d="M11460 13159 c0 -5 5 -7 10 -4 6 3 10 8 10 11 0 2 -4 4 -10 4 -5 0
-10 -5 -10 -11z"/>
<path d="M11970 13150 c0 -5 5 -10 11 -10 5 0 7 5 4 10 -3 6 -8 10 -11 10 -2
0 -4 -4 -4 -10z"/>
<path d="M11161 13034 c0 -11 3 -14 6 -6 3 7 2 16 -1 19 -3 4 -6 -2 -5 -13z"/>
<path d="M11180 13026 c0 -9 7 -16 16 -16 17 0 14 22 -4 28 -7 2 -12 -3 -12
-12z"/>
<path d="M13855 5200 c3 -5 11 -10 16 -10 6 0 7 5 4 10 -3 6 -11 10 -16 10 -6
0 -7 -4 -4 -10z"/>
<path d="M13672 5048 c6 -18 28 -21 28 -4 0 9 -7 16 -16 16 -9 0 -14 -5 -12
-12z"/>
<path d="M13620 4971 c0 -5 5 -13 10 -16 6 -3 10 -2 10 4 0 5 -4 13 -10 16 -5
3 -10 2 -10 -4z"/>
<path d="M13650 4970 c0 -5 5 -10 11 -10 5 0 7 5 4 10 -3 6 -8 10 -11 10 -2 0
-4 -4 -4 -10z"/>
<path d="M13530 3389 c0 -5 5 -7 10 -4 6 3 10 8 10 11 0 2 -4 4 -10 4 -5 0
-10 -5 -10 -11z"/>
<path d="M4005 14170 c-3 -5 -1 -10 4 -10 6 0 11 5 11 10 0 6 -2 10 -4 10 -3
0 -8 -4 -11 -10z"/>
<path d="M4070 14106 c0 -9 8 -12 25 -8 37 7 41 22 6 22 -20 0 -31 -5 -31 -14z"/>
<path d="M4250 14116 c0 -2 14 -6 30 -8 17 -3 30 -1 30 4 0 4 -13 8 -30 8 -16
0 -30 -2 -30 -4z"/>
<path d="M4460 14037 c0 -11 58 -37 82 -37 20 0 21 2 7 15 -15 16 -89 33 -89
22z"/>
<path d="M4359 13949 c-10 -6 -4 -9 19 -9 17 0 32 2 32 4 0 9 -39 13 -51 5z"/>
<path d="M4595 13922 c-43 -7 -51 -12 -35 -22 13 -8 12 -10 -2 -10 -10 0 -18
4 -18 10 0 13 -46 24 -60 15 -19 -12 24 -44 77 -57 26 -7 54 -18 60 -25 7 -6
26 -14 43 -18 16 -4 30 -11 30 -16 0 -6 20 -19 45 -30 25 -11 45 -24 45 -29 0
-6 7 -10 15 -10 8 0 15 -6 15 -14 0 -8 8 -17 18 -19 12 -3 10 -5 -7 -6 -13 0
-44 -15 -69 -32 -37 -25 -50 -29 -64 -20 -23 14 -48 14 -48 0 0 -7 -10 -9 -25
-7 -14 3 -30 0 -35 -7 -8 -10 3 -15 52 -20 65 -8 118 -28 118 -45 0 -6 11 -15
24 -21 16 -8 22 -17 19 -30 -6 -23 -51 -26 -59 -4 -4 8 -17 15 -29 15 -13 0
-36 10 -52 23 -43 36 -64 41 -80 18 -7 -11 -20 -18 -27 -15 -8 3 -21 -5 -30
-17 l-15 -23 -21 27 c-17 21 -27 25 -50 20 -19 -3 -30 -1 -30 6 0 6 -4 11 -10
11 -5 0 -10 -9 -10 -20 0 -17 -5 -19 -25 -14 -31 8 -32 -6 -4 -32 20 -17 23
-17 32 -3 8 13 15 14 39 5 29 -11 33 -32 4 -30 -9 1 -16 -6 -16 -16 0 -19 -27
-46 -37 -37 -3 4 0 13 6 21 8 10 9 16 1 21 -5 3 -10 3 -10 -1 0 -4 -6 -1 -12
8 -7 9 -22 19 -34 22 -25 8 -45 -24 -47 -75 -2 -27 -7 -35 -24 -37 -13 -2 -23
1 -23 7 0 6 -4 11 -9 11 -4 0 -7 -15 -6 -33 5 -52 -10 -66 -24 -24 -10 30 -9
45 9 97 14 43 18 66 11 73 -7 7 -14 1 -21 -18 -10 -26 -12 -27 -29 -11 -31 28
-46 12 -16 -18 9 -8 14 -19 13 -23 -1 -4 2 -19 6 -31 6 -19 2 -30 -24 -55 -26
-25 -33 -28 -41 -16 -8 11 -12 11 -16 2 -2 -7 -11 -13 -19 -13 -9 0 -12 5 -8
13 6 10 4 10 -7 0 -24 -24 -42 -16 -37 17 3 17 1 30 -4 30 -5 0 -6 5 -2 11 4
8 0 8 -15 0 -11 -7 -21 -18 -21 -25 0 -18 -45 -47 -63 -40 -8 3 -21 -6 -30
-20 -10 -14 -28 -26 -44 -28 -18 -2 -28 -9 -28 -20 0 -10 -6 -23 -13 -30 -18
-18 -15 -46 7 -57 10 -6 21 -8 24 -5 12 12 18 -40 7 -60 -9 -17 -18 -21 -46
-18 -21 3 -34 0 -34 -7 0 -6 -13 -25 -29 -42 -24 -24 -36 -30 -63 -27 -30 3
-33 1 -30 -21 2 -13 -2 -27 -8 -31 -7 -4 -25 -39 -40 -76 -21 -53 -32 -70 -49
-72 -15 -2 -21 -9 -17 -18 3 -8 1 -14 -3 -14 -5 0 -18 -15 -28 -32 -11 -18
-33 -40 -49 -48 -16 -8 -43 -25 -60 -37 -17 -12 -39 -24 -50 -26 -29 -5 -84
-39 -114 -69 -15 -16 -33 -28 -41 -28 -21 0 -84 -43 -85 -57 -1 -7 -2 -17 -2
-22 -3 -15 -103 -71 -128 -71 -20 0 -24 -4 -20 -18 8 -25 -26 -56 -52 -48 -12
4 -26 1 -35 -8 -8 -8 -17 -13 -20 -10 -3 3 -9 -16 -12 -43 -4 -26 -13 -55 -20
-63 -7 -8 -16 -25 -19 -36 -5 -16 -13 -21 -35 -18 -26 3 -29 0 -35 -35 -6 -39
-38 -71 -71 -71 -9 0 -13 -4 -10 -10 3 -5 1 -10 -5 -10 -7 0 -10 -7 -6 -15 4
-10 -1 -15 -14 -15 -14 0 -20 -7 -20 -22 0 -48 -3 -64 -21 -89 -10 -14 -21
-49 -25 -77 -4 -29 -11 -55 -15 -58 -5 -3 -9 -14 -9 -25 0 -11 -10 -33 -21
-49 -12 -15 -21 -40 -21 -54 0 -15 -4 -29 -9 -32 -5 -3 -9 -15 -9 -27 0 -11
-12 -38 -26 -58 -14 -21 -27 -54 -29 -74 -2 -20 -10 -42 -18 -48 -7 -7 -20
-31 -27 -55 -9 -28 -27 -55 -53 -76 -39 -32 -47 -57 -33 -101 4 -11 1 -28 -7
-39 -13 -18 -16 -18 -58 -3 -58 21 -81 19 -73 -5 5 -17 12 -59 13 -85 1 -19
16 -16 57 12 20 14 41 25 46 25 5 0 8 -19 7 -43 -2 -24 1 -49 5 -56 4 -6 2
-18 -4 -26 -10 -12 -10 -18 0 -29 9 -12 7 -21 -11 -45 -12 -17 -26 -28 -32
-24 -5 3 -4 -4 2 -15 15 -27 14 -32 -4 -32 -14 0 -40 -45 -37 -62 1 -5 -4 -8
-12 -8 -7 0 -19 -7 -26 -15 -7 -8 -16 -12 -21 -9 -5 3 -17 -3 -26 -12 -13 -13
-14 -19 -5 -22 6 -2 12 -8 12 -14 0 -6 6 -16 14 -22 12 -9 12 -20 3 -63 -9
-43 -8 -55 6 -77 26 -39 22 -49 -18 -44 -23 3 -36 -1 -40 -10 -10 -26 -5 -33
16 -21 12 6 30 9 40 6 15 -4 27 5 46 34 29 44 51 49 78 19 16 -18 17 -27 8
-63 -6 -23 -9 -78 -8 -122 1 -61 -2 -87 -16 -112 -14 -25 -16 -38 -8 -67 6
-20 7 -41 4 -47 -4 -5 -1 -17 6 -25 9 -11 9 -18 1 -26 -7 -7 -12 -25 -12 -41
0 -24 -3 -27 -13 -18 -8 6 -17 8 -20 4 -10 -10 -8 -52 3 -73 7 -14 5 -27 -8
-52 -9 -18 -20 -34 -24 -36 -5 -2 -8 -13 -8 -24 0 -16 5 -19 24 -14 28 7 42
-16 21 -34 -8 -6 -11 -18 -8 -27 3 -8 0 -18 -7 -23 -9 -6 -9 -13 -1 -28 17
-31 14 -47 -4 -32 -9 7 -17 11 -19 9 -8 -8 -9 -45 -1 -62 4 -10 2 -23 -5 -32
-7 -8 -10 -22 -6 -30 3 -8 1 -15 -5 -15 -6 0 -13 9 -16 20 -3 11 -10 20 -15
20 -5 0 -6 -9 -3 -20 3 -11 2 -20 -4 -20 -13 0 -25 61 -13 69 19 12 24 52 9
64 -9 7 -17 21 -20 32 -4 19 -4 19 -12 1 -5 -11 -4 -31 2 -46 6 -16 7 -34 2
-41 -6 -10 -9 -8 -9 9 0 12 -4 22 -8 22 -4 0 -8 10 -9 21 -1 12 -10 30 -19 40
-13 15 -14 19 -3 19 12 0 12 2 -1 9 -20 13 -33 3 -27 -21 3 -11 -2 -27 -14
-39 -10 -10 -15 -19 -10 -19 6 0 13 5 17 11 4 8 11 3 20 -12 7 -13 10 -27 8
-30 -6 -11 -44 2 -44 15 0 6 -5 4 -10 -4 -7 -10 -8 1 -4 38 7 53 7 54 -15 41
-14 -10 -21 -24 -21 -46 0 -17 -5 -35 -10 -38 -6 -4 -7 -11 -4 -17 4 -6 -1 -8
-13 -4 -16 5 -22 -1 -31 -33 -7 -21 -12 -46 -12 -55 0 -9 -7 -16 -15 -16 -8 0
-15 5 -15 11 0 5 5 7 11 3 9 -5 10 1 5 22 -4 16 -7 74 -7 128 1 115 -8 198
-20 190 -5 -3 -9 19 -9 49 0 29 -3 57 -8 61 -7 8 -8 12 -11 72 -1 35 -29 77
-37 57 -12 -27 -22 -11 -12 18 13 36 5 47 -18 25 -12 -12 -14 -24 -9 -44 17
-60 11 -177 -8 -144 -2 4 -1 0 2 -8 2 -8 6 -48 7 -89 2 -41 5 -85 9 -98 3 -14
1 -31 -5 -39 -8 -9 -9 -27 -3 -56 5 -24 9 -60 8 -80 -1 -21 2 -38 7 -38 4 0 8
-20 8 -45 0 -25 -4 -45 -9 -45 -17 0 -20 -40 -4 -49 13 -7 15 -21 10 -79 -4
-50 -2 -72 6 -76 9 -3 8 -8 -3 -15 -9 -6 -10 -11 -3 -11 7 0 15 -24 19 -56 5
-45 4 -58 -8 -65 -18 -10 -12 -60 6 -53 8 3 11 -16 10 -63 -1 -38 -3 -72 -5
-78 -6 -19 12 -85 23 -85 7 0 8 -23 4 -72 -4 -40 -6 -104 -6 -143 1 -38 2 -96
3 -127 0 -32 5 -58 9 -58 4 0 8 5 8 11 0 5 5 7 10 4 6 -4 10 -14 8 -23 -1 -10
6 -32 15 -49 20 -38 31 -161 16 -179 -7 -9 -7 -25 0 -51 5 -21 9 -45 8 -53 0
-8 3 -37 7 -65 l9 -50 13 39 c9 26 11 44 4 56 -6 10 -9 38 -9 62 l1 43 10 -55
c6 -30 11 -56 13 -58 8 -8 45 20 45 33 0 8 5 15 10 15 6 0 10 -7 10 -15 0 -8
5 -15 11 -15 6 0 8 9 4 20 -4 11 -3 34 0 51 10 47 28 19 22 -33 -21 -156 -28
-181 -75 -230 -30 -32 -54 -115 -40 -140 5 -11 5 -25 -1 -35 -15 -29 -51 -146
-47 -151 6 -5 96 173 96 189 0 6 -7 9 -15 5 -20 -7 -19 -1 12 71 24 55 30 62
50 57 20 -5 23 -2 23 24 0 16 8 51 19 78 10 27 24 86 30 132 5 45 17 93 26
105 19 27 19 37 0 37 -11 0 -15 12 -15 45 0 50 11 57 35 23 15 -22 16 -22 27
-4 6 10 26 36 46 58 19 21 32 41 28 45 -3 4 1 18 10 32 12 17 14 26 6 29 -7 2
-12 11 -12 20 0 11 -8 5 -20 -15 -35 -57 -53 -35 -28 34 12 33 32 43 41 21 4
-10 6 -9 6 1 1 8 -6 19 -15 25 -14 11 -14 17 2 71 9 33 25 76 35 95 21 39 24
60 9 60 -5 0 -10 -9 -10 -19 0 -11 -5 -23 -11 -27 -7 -4 -10 3 -8 17 1 13 -1
32 -5 41 -4 9 -3 25 2 35 5 10 15 42 22 72 13 56 17 76 26 151 4 25 12 52 19
60 7 8 15 35 19 60 3 25 8 54 10 65 3 11 8 41 12 68 3 26 10 47 15 47 5 0 9 8
9 19 0 10 8 29 19 42 13 17 20 50 25 114 7 86 17 115 38 115 6 0 23 11 40 25
16 14 34 25 39 25 18 0 9 -28 -15 -43 -19 -13 -66 -85 -66 -102 0 -16 44 0 72
25 18 17 40 30 49 30 9 0 33 15 52 33 49 46 65 58 74 55 4 -2 24 9 43 24 29
22 42 26 76 21 33 -4 45 -1 69 20 17 13 46 27 65 31 20 3 43 15 53 26 9 11 29
20 45 20 40 0 52 16 40 51 -12 35 -12 35 -49 8 -16 -11 -29 -17 -29 -13 0 3
-6 2 -13 -5 -7 -6 -27 -10 -43 -10 -58 1 -96 -8 -106 -25 -8 -13 -13 -15 -24
-5 -11 9 -22 6 -52 -14 -20 -14 -58 -31 -84 -38 -27 -6 -48 -15 -48 -20 0 -5
-11 -7 -24 -3 -18 4 -29 -2 -49 -25 -29 -35 -37 -38 -37 -14 0 14 -2 14 -20
-2 -26 -23 -26 -1 -1 24 11 11 27 31 36 45 10 14 23 26 31 26 7 0 20 12 28 28
8 15 35 51 59 79 55 64 177 267 177 295 0 4 11 32 25 62 14 30 25 59 25 64 0
5 9 17 20 27 13 12 20 31 20 54 0 25 6 40 20 49 25 15 26 32 1 32 -26 0 -53
-44 -45 -74 6 -26 -17 -46 -54 -46 -10 0 -34 -19 -53 -41 -49 -59 -108 -116
-122 -116 -7 0 -20 -4 -29 -8 -24 -10 -24 19 1 53 27 39 71 129 71 146 0 8 11
28 25 44 29 35 31 42 9 42 -28 0 -12 71 25 107 19 20 29 37 25 47 -11 28 47
66 71 46 9 -8 23 4 54 43 22 30 41 57 41 61 0 7 -105 2 -140 -6 -9 -2 -14 3
-12 13 5 32 -29 29 -75 -6 -50 -38 -84 -51 -109 -41 -13 5 -15 16 -11 53 4 38
12 53 46 84 23 21 41 42 41 47 0 36 90 137 98 112 9 -25 35 7 37 45 0 5 15 19
33 30 28 17 32 24 27 50 -11 68 -11 70 11 68 14 -2 24 4 27 17 3 12 0 20 -7
20 -24 0 -81 -23 -109 -44 -28 -21 -29 -21 -43 -2 -12 18 -9 29 36 112 38 70
50 103 50 136 0 29 10 60 31 98 18 30 50 89 72 130 37 69 121 163 185 207 12
8 22 20 22 26 0 5 18 25 40 44 22 19 40 40 40 47 0 7 10 17 23 23 34 16 241
191 251 212 5 11 21 25 36 31 15 6 32 22 38 36 7 13 16 24 21 24 6 0 63 52
128 116 65 64 138 133 163 153 25 20 71 63 103 95 32 33 67 61 78 63 11 2 40
23 66 48 46 45 68 55 75 34 5 -14 97 32 98 49 0 6 9 12 19 12 11 0 27 10 35
22 9 12 16 18 16 13 0 -6 16 8 36 30 34 38 35 39 29 12 -5 -26 -4 -27 22 -21
38 9 43 13 43 30 0 8 9 14 22 14 12 0 30 7 40 17 15 14 18 14 18 1 0 -20 45
-12 82 15 16 12 34 17 45 13 10 -3 6 4 -11 18 -25 21 -28 27 -17 40 10 12 11
16 1 16 -6 0 -25 14 -41 31 -29 31 -62 32 -37 1 11 -13 11 -14 -2 -6 -8 5 -36
9 -62 9 -48 0 -66 12 -38 25 57 28 88 36 117 30 18 -4 51 -4 74 0 24 5 54 4
70 -2 17 -6 34 -6 45 0 13 7 11 10 -15 15 -19 4 -31 13 -31 23 0 12 6 15 24
10 35 -9 122 27 118 48 -2 10 4 16 16 16 11 0 40 20 65 45 26 25 52 45 59 45
6 0 19 6 27 14 12 10 25 11 51 3 l35 -10 -45 -11 c-52 -13 -60 -35 -17 -50 21
-8 30 -7 36 3 6 9 30 14 67 14 33 1 47 2 32 5 -23 3 -28 8 -28 33 0 28 -2 29
-44 29 -25 0 -51 6 -58 13 -8 8 -39 14 -76 14 -35 1 -69 6 -75 12 -6 6 -17 11
-24 11 -7 0 -10 6 -7 14 4 10 15 13 40 9 22 -4 34 -2 34 6 0 26 112 -3 123
-32 5 -14 67 -30 67 -17 0 3 -13 22 -30 40 -37 42 -38 51 -2 46 49 -6 64 -17
58 -41 -6 -23 18 -54 31 -42 3 4 12 2 19 -4 8 -6 20 -9 28 -6 7 3 19 0 26 -6
10 -9 11 -7 5 11 -6 20 -4 23 12 19 10 -3 47 -9 83 -12 36 -4 71 -12 78 -18 7
-5 15 -7 18 -4 9 8 -72 78 -130 112 -105 61 -180 111 -207 137 -16 14 -42 29
-59 33 -16 4 -38 19 -50 33 -14 20 -22 24 -28 14 -7 -10 -13 -8 -27 8 -10 11
-28 20 -40 20 -13 0 -28 7 -35 15 -25 30 -86 51 -250 88 -30 7 -64 11 -75 9z
m150 -74 c14 -6 25 -15 25 -19 0 -9 -71 9 -84 22 -14 13 28 11 59 -3z m200
-192 c31 -32 40 -47 32 -55 -30 -30 -107 20 -107 70 0 42 24 37 75 -15z m144
-40 c15 -18 -1 -30 -30 -21 -16 5 -18 10 -8 21 15 18 23 18 38 0z m-69 -56 c0
-5 -4 -10 -9 -10 -6 0 -13 5 -16 10 -3 6 1 10 9 10 9 0 16 -4 16 -10z m-148
-52 c-12 -12 -35 -1 -27 12 3 5 13 6 21 3 10 -4 12 -9 6 -15z m-370 -70 c-10
-40 -30 -53 -58 -38 -31 17 -31 40 0 40 14 0 28 5 31 10 12 20 33 11 27 -12z
m-96 -97 c-10 -16 -33 -13 -40 5 -4 12 -2 15 9 10 8 -3 15 0 15 6 0 9 3 9 11
1 6 -6 8 -16 5 -22z m404 -61 c0 -5 -5 -10 -11 -10 -5 0 -7 5 -4 10 3 6 8 10
11 10 2 0 4 -4 4 -10z m-975 -19 c3 -5 1 -12 -5 -16 -5 -3 -10 1 -10 9 0 18 6
21 15 7z m327 -48 c-5 -15 -32 -18 -32 -4 0 6 5 13 10 16 6 4 8 11 5 16 -4 5
-3 15 1 21 9 15 23 -29 16 -49z m503 35 c-2 -30 -48 -33 -53 -4 -3 14 0 17 12
13 8 -3 18 -2 21 3 11 18 22 11 20 -12z m-656 -24 c3 -3 0 -9 -6 -15 -15 -15
-43 -4 -43 16 0 12 6 15 23 9 12 -3 24 -8 26 -10z m341 -114 c0 -5 -5 -10 -11
-10 -5 0 -7 5 -4 10 3 6 8 10 11 10 2 0 4 -4 4 -10z m-580 -80 c0 -5 -7 -10
-15 -10 -8 0 -15 5 -15 10 0 6 7 10 15 10 8 0 15 -4 15 -10z m450 -155 c-7 -9
-15 -13 -18 -10 -3 2 1 11 8 20 7 9 15 13 18 10 3 -2 -1 -11 -8 -20z m-1599
-1568 c-13 -13 -15 1 -4 30 7 17 8 17 11 -1 2 -10 -1 -23 -7 -29z m109 -156
c0 -20 -27 -48 -37 -38 -9 9 18 68 28 61 5 -3 9 -13 9 -23z m-402 -23 c-6 -18
-28 -21 -28 -4 0 9 7 16 16 16 9 0 14 -5 12 -12z m-19 -42 c10 -12 9 -14 -6
-11 -10 2 -21 4 -25 4 -5 1 -8 6 -8 11 0 15 26 12 39 -4z m461 -350 c0 -3 -4
-8 -10 -11 -5 -3 -10 -1 -10 4 0 6 5 11 10 11 6 0 10 -2 10 -4z m-16 -70 c-24
-18 -29 -14 -14 14 9 16 15 19 23 11 8 -8 6 -15 -9 -25z m-201 -86 c4 -4 1
-13 -8 -20 -12 -10 -19 -9 -40 4 -14 9 -23 21 -20 26 6 10 54 3 68 -10z m-131
-182 c-7 -7 -12 -8 -12 -2 0 14 12 26 19 19 2 -3 -1 -11 -7 -17z m46 -265 c-6
-7 -14 -13 -17 -13 -11 0 -7 74 4 82 14 10 26 -54 13 -69z m128 -31 c-14 -14
-29 -23 -32 -19 -10 10 37 58 48 50 6 -3 -2 -17 -16 -31z m-156 -48 c-12 -14
-72 -25 -63 -11 6 10 40 24 59 24 10 0 11 -4 4 -13z m-693 -176 c-3 -7 -5 -2
-5 12 0 14 2 19 5 13 2 -7 2 -19 0 -25z m648 -30 c-3 -13 -9 -33 -12 -45 -9
-40 -23 -25 -21 22 1 37 5 45 21 45 15 0 18 -4 12 -22z m-652 -103 c4 -8 2
-17 -3 -20 -6 -4 -10 3 -10 14 0 25 6 27 13 6z m7 -70 c0 -19 -4 -35 -10 -35
-11 0 -14 53 -3 63 11 12 13 8 13 -28z m-13 -77 c-3 -8 -6 -5 -6 6 -1 11 2 17
5 13 3 -3 4 -12 1 -19z m283 -109 c-7 -21 -10 -44 -7 -51 2 -8 -1 -22 -9 -32
-12 -17 -14 -17 -30 -1 -15 15 -16 22 -5 67 7 27 10 52 7 55 -3 4 -6 1 -6 -5
0 -7 -4 -12 -9 -12 -5 0 -8 11 -8 24 0 18 4 22 18 19 11 -3 19 -14 19 -24 0
-37 18 -27 26 14 7 39 8 40 12 12 2 -16 -2 -46 -8 -66z m-130 -14 c0 -8 -4
-15 -10 -15 -5 0 -10 7 -10 15 0 8 5 15 10 15 6 0 10 -7 10 -15z m56 -50 c-1
-62 -16 -76 -16 -16 0 35 8 71 15 71 1 0 2 -25 1 -55z m-56 5 c0 -11 0 -22 0
-25 0 -3 7 -21 15 -41 18 -45 10 -143 -14 -162 -14 -11 -15 -13 0 -21 10 -7
15 -23 13 -50 -1 -23 2 -41 7 -41 12 0 12 -87 0 -94 -15 -10 -21 24 -8 45 10
17 9 22 -5 33 -19 14 -25 46 -8 46 5 0 1 15 -9 33 -13 24 -15 36 -7 49 6 9 7
21 3 25 -5 4 -12 1 -17 -7 -8 -13 -10 -12 -10 2 0 11 -5 15 -15 12 -8 -4 -15
-1 -15 4 0 14 33 24 54 16 23 -9 20 11 -5 27 -25 17 -29 75 -8 132 15 40 29
49 29 17z m257 -2 c-3 -8 -6 -5 -6 6 -1 11 2 17 5 13 3 -3 4 -12 1 -19z m-27
-130 c-11 -26 -25 -50 -30 -53 -5 -3 -7 -36 -4 -73 l6 -67 -21 25 c-16 20 -20
38 -20 88 1 34 5 62 10 62 5 0 9 -7 9 -15 0 -8 4 -15 10 -15 5 0 10 35 12 78
3 70 4 75 15 50 15 -34 25 -36 23 -5 -3 38 3 44 7 7 2 -21 -4 -54 -17 -82z
m-103 30 c-3 -8 -6 -5 -6 6 -1 11 2 17 5 13 3 -3 4 -12 1 -19z m-177 -53 c0
-8 -4 -15 -10 -15 -5 0 -7 7 -4 15 4 8 8 15 10 15 2 0 4 -7 4 -15z m-47 -175
c2 -30 2 -43 0 -27 -2 15 -8 27 -14 27 -5 0 -9 17 -9 37 0 56 18 27 23 -37z
m64 -67 c-3 -10 -5 -4 -5 12 0 17 2 24 5 18 2 -7 2 -21 0 -30z m-7 -87 c0 -36
-15 -40 -18 -5 -1 16 2 29 8 29 5 0 10 -11 10 -24z m260 -14 c0 -16 -7 -37
-16 -48 -8 -10 -13 -14 -10 -7 3 6 3 19 -1 30 -6 16 -8 15 -13 -6 -9 -37 -30
-38 -30 -2 0 26 4 31 25 31 16 0 25 6 25 15 0 8 5 15 10 15 6 0 10 -13 10 -28z
m-200 -9 c-1 -24 -2 -26 -11 -10 -5 9 -7 22 -4 27 10 17 15 11 15 -17z m-35
-78 c9 -8 9 -16 -2 -35 l-14 -25 4 28 c2 15 0 27 -4 27 -5 0 -9 10 -8 23 0 15
2 17 6 7 4 -8 12 -19 18 -25z m180 -25 c3 -5 -1 -10 -9 -10 -9 0 -16 5 -16 10
0 6 4 10 9 10 6 0 13 -4 16 -10z m42 -42 c-3 -7 -5 -2 -5 12 0 14 2 19 5 13 2
-7 2 -19 0 -25z m-149 -66 c2 -45 -1 -72 -8 -72 -12 0 -11 -4 -14 83 -2 45 1
66 8 64 6 -2 12 -35 14 -75z m-98 -2 c0 -5 -4 -10 -10 -10 -5 0 -10 5 -10 10
0 6 5 10 10 10 6 0 10 -4 10 -10z m310 -34 c0 -3 -4 -8 -10 -11 -5 -3 -10 -1
-10 4 0 6 5 11 10 11 6 0 10 -2 10 -4z m-305 -146 c3 -5 1 -10 -4 -10 -6 0
-11 5 -11 10 0 6 2 10 4 10 3 0 8 -4 11 -10z m-8 -207 c-3 -10 -5 -4 -5 12 0
17 2 24 5 18 2 -7 2 -21 0 -30z m121 -98 c-3 -3 -9 2 -12 12 -6 14 -5 15 5 6
7 -7 10 -15 7 -18z"/>
<path d="M5480 13745 c7 -8 21 -15 30 -15 10 0 20 -4 22 -9 4 -11 217 -102
232 -99 6 1 21 -2 34 -6 14 -5 28 -3 37 4 10 8 24 8 52 1 53 -15 106 -14 101
2 -2 6 -31 25 -64 41 -32 15 -62 33 -66 40 -4 6 -18 12 -30 13 -73 8 -104 8
-114 1 -7 -5 -14 -3 -17 6 -6 14 -101 17 -123 3 -6 -3 -19 2 -29 13 -22 25
-85 29 -65 5z"/>
<path d="M4685 13709 c-10 -15 1 -22 24 -14 12 3 19 11 16 16 -8 12 -32 11
-40 -2z"/>
<path d="M4520 13602 c0 -5 7 -13 16 -16 10 -4 14 -1 12 6 -5 15 -28 23 -28
10z"/>
<path d="M4225 13570 c3 -5 8 -10 11 -10 2 0 4 5 4 10 0 6 -5 10 -11 10 -5 0
-7 -4 -4 -10z"/>
<path d="M4246 13511 c-3 -5 0 -14 8 -20 10 -8 16 -8 25 2 6 8 8 17 4 20 -9
10 -31 9 -37 -2z"/>
<path d="M6120 13513 c0 -10 106 -53 131 -53 8 0 4 9 -11 25 -26 26 -120 48
-120 28z"/>
<path d="M4030 13486 c0 -8 5 -18 10 -21 6 -3 10 3 10 14 0 12 -4 21 -10 21
-5 0 -10 -6 -10 -14z"/>
<path d="M4049 13433 c-29 -7 -32 -63 -4 -63 11 0 45 41 45 54 0 7 -24 12 -41
9z"/>
<path d="M5002 13348 c-7 -7 -12 -18 -12 -25 0 -7 -9 -12 -21 -10 -29 3 -36
-20 -8 -28 16 -5 27 -1 43 18 11 14 34 28 50 31 15 4 26 10 23 13 -12 11 -64
12 -75 1z"/>
<path d="M3795 13310 c3 -5 8 -10 11 -10 2 0 4 5 4 10 0 6 -5 10 -11 10 -5 0
-7 -4 -4 -10z"/>
<path d="M3234 13151 c4 -5 0 -12 -6 -14 -8 -3 -6 -6 5 -6 9 -1 17 6 17 14 0
8 -5 15 -11 15 -5 0 -8 -4 -5 -9z"/>
<path d="M8270 13000 c0 -5 4 -10 9 -10 6 0 13 5 16 10 3 6 -1 10 -9 10 -9 0
-16 -4 -16 -10z"/>
<path d="M8285 12960 c-3 -5 -2 -10 4 -10 5 0 13 5 16 10 3 6 2 10 -4 10 -5 0
-13 -4 -16 -10z"/>
<path d="M7648 12800 c-240 -41 -459 -231 -538 -468 -35 -107 -53 -252 -46
-387 5 -105 37 -299 64 -390 36 -119 169 -312 298 -434 186 -175 371 -268 639
-321 74 -15 399 -16 477 -2 57 11 185 73 246 119 79 60 167 172 221 280 105
211 116 377 45 683 -40 169 -211 397 -443 591 -152 127 -263 195 -441 267 -99
40 -134 49 -264 61 -123 12 -189 12 -258 1z m408 -245 c186 -53 301 -112 432
-223 87 -72 128 -116 167 -177 78 -124 115 -258 130 -475 3 -47 9 -114 11
-150 9 -107 5 -138 -28 -208 -22 -46 -52 -88 -97 -132 -72 -72 -124 -101 -221
-126 -63 -16 -84 -16 -335 0 -33 2 -85 12 -115 21 -30 9 -65 19 -77 22 -12 3
-25 14 -28 24 -4 10 -13 19 -20 19 -8 0 -30 9 -50 20 -20 11 -42 20 -51 20
-14 0 -62 30 -92 57 -7 7 -26 20 -42 30 -17 9 -30 21 -30 25 0 4 -5 8 -10 8
-6 0 -29 16 -50 37 -55 50 -134 200 -195 368 -15 43 -44 233 -45 294 0 100 27
228 63 291 125 221 418 330 683 255z"/>
<path d="M7896 12332 c-30 -34 -1 -115 64 -177 54 -51 71 -99 56 -162 -9 -39
-77 -103 -137 -131 -76 -34 -81 -40 -70 -95 11 -62 37 -88 126 -131 98 -47
182 -67 288 -69 102 -2 111 4 123 80 5 37 1 55 -25 112 -47 102 -42 134 39
230 91 108 53 199 -118 285 -141 71 -308 99 -346 58z"/>
<path d="M4880 12416 c-41 -13 -88 -28 -103 -35 -16 -6 -46 -11 -68 -11 -21 0
-39 -4 -39 -10 0 -5 -7 -10 -16 -10 -28 0 -134 -62 -184 -107 -27 -24 -64 -71
-83 -106 -19 -34 -44 -79 -55 -100 -12 -20 -22 -38 -21 -40 0 -1 -2 -9 -4 -17
-17 -59 -47 -202 -47 -225 0 -24 5 -20 43 36 23 35 49 77 57 92 19 37 76 104
84 97 3 -3 -10 -32 -29 -63 -71 -118 -117 -253 -140 -417 -19 -139 6 -450 46
-560 40 -109 151 -291 185 -304 8 -3 14 -10 14 -15 0 -11 45 -59 58 -62 16 -4
90 -56 129 -91 86 -77 268 -140 473 -163 30 -4 69 -9 85 -12 17 -3 35 -5 40
-4 6 1 50 4 98 6 103 4 152 14 302 62 116 37 234 89 298 131 61 40 176 179
212 257 84 180 109 311 102 534 -9 288 -48 427 -165 590 -81 114 -241 283
-329 350 -75 56 -196 122 -268 146 -56 19 -218 52 -285 59 -25 3 -45 6 -45 7
0 1 -61 3 -135 5 -119 3 -144 0 -210 -20z m145 -16 c3 -6 -4 -10 -17 -10 -18
0 -20 2 -8 10 19 12 18 12 25 0z m510 -290 c248 -77 428 -248 505 -480 51
-152 63 -433 24 -568 -37 -127 -119 -259 -218 -349 -120 -110 -265 -152 -519
-153 -192 0 -266 14 -396 77 -75 36 -108 59 -171 121 -136 135 -167 232 -176
542 -7 228 3 294 62 413 51 103 207 264 315 325 85 48 164 78 241 92 84 15
253 4 333 -20z m-1041 -75 c-26 -34 -42 -47 -28 -22 9 15 46 57 51 57 2 0 -8
-16 -23 -35z"/>
<path d="M5240 11946 c-89 -25 -160 -81 -160 -127 0 -26 25 -74 62 -120 37
-46 71 -154 57 -180 -12 -23 -63 -49 -153 -79 -85 -28 -106 -48 -106 -100 0
-57 45 -102 174 -173 191 -106 283 -125 382 -78 21 10 55 22 74 26 78 16 102
53 105 162 2 72 1 73 -18 56 -19 -17 -20 -17 -58 27 -24 28 -39 55 -39 72 0
35 16 44 40 23 17 -16 19 -15 30 4 6 12 15 19 20 16 5 -3 11 -1 15 5 12 19 33
10 42 -17 9 -26 11 -23 28 39 22 83 16 156 -18 224 -26 52 -118 145 -177 181
-82 49 -205 65 -300 39z"/>
<path d="M2914 11485 c-4 -8 -3 -23 1 -32 5 -10 7 -26 6 -36 -3 -21 26 -34 41
-19 8 8 6 18 -6 38 -10 14 -16 35 -13 45 6 23 -21 27 -29 4z"/>
<path d="M2930 11359 c0 -5 5 -7 10 -4 6 3 10 8 10 11 0 2 -4 4 -10 4 -5 0
-10 -5 -10 -11z"/>
<path d="M2898 11300 c-9 -17 -15 -30 -13 -30 2 0 10 -3 19 -6 10 -4 15 0 14
13 0 10 3 26 7 36 12 29 -9 19 -27 -13z"/>
<path d="M3850 10964 c0 -8 5 -24 11 -35 7 -15 7 -24 -1 -34 -15 -18 9 -183
40 -278 33 -100 145 -315 208 -399 105 -141 237 -267 337 -324 183 -104 242
-121 495 -140 156 -12 459 2 540 25 19 6 47 13 62 16 18 3 25 10 22 20 -8 20
-30 22 -106 9 -37 -6 -70 -8 -74 -5 -3 3 -90 6 -192 7 -224 1 -354 10 -442 30
-79 18 -236 94 -292 141 -23 19 -53 40 -68 48 -44 23 -171 183 -258 327 -53
88 -167 320 -164 336 2 6 -4 12 -13 12 -20 0 -34 36 -51 134 -12 70 -34 126
-49 126 -3 0 -5 -7 -5 -16z"/>
<path d="M7106 10926 c3 -9 11 -16 16 -16 13 0 5 23 -10 28 -7 2 -10 -2 -6
-12z"/>
<path d="M7377 10666 c20 -26 100 -72 109 -63 4 4 -5 12 -20 18 -14 7 -26 16
-26 21 0 4 -7 8 -15 8 -8 0 -15 4 -15 8 0 5 -11 14 -25 20 l-26 12 18 -24z"/>
<path d="M7505 10590 c8 -13 65 -43 71 -37 5 4 -61 47 -72 47 -3 0 -2 -5 1
-10z"/>
<path d="M9965 10567 c-52 -18 -57 -21 -35 -27 32 -8 80 -1 80 12 0 5 9 6 20
3 16 -5 20 -2 20 14 0 25 -7 25 -85 -2z"/>
<path d="M7600 10535 c7 -8 20 -15 29 -15 13 1 13 3 -3 15 -26 19 -42 19 -26
0z"/>
<path d="M7665 10510 c3 -5 11 -10 16 -10 6 0 7 5 4 10 -3 6 -11 10 -16 10 -6
0 -7 -4 -4 -10z"/>
<path d="M2025 10490 c3 -5 8 -10 11 -10 2 0 4 5 4 10 0 6 -5 10 -11 10 -5 0
-7 -4 -4 -10z"/>
<path d="M7705 10490 c3 -5 14 -10 23 -10 15 0 15 2 2 10 -20 13 -33 13 -25 0z"/>
<path d="M7790 10448 c0 -4 6 -8 14 -8 8 0 21 -3 30 -6 9 -3 16 -2 16 4 0 5
-13 12 -30 14 -16 3 -30 1 -30 -4z"/>
<path d="M7880 10421 c14 -11 35 -21 47 -21 12 0 24 -6 26 -12 4 -9 6 -8 6 2
1 14 -27 29 -89 47 -8 3 -4 -4 10 -16z"/>
<path d="M2920 10404 c0 -8 5 -12 10 -9 6 3 10 10 10 16 0 5 -4 9 -10 9 -5 0
-10 -7 -10 -16z"/>
<path d="M1736 10263 c-4 -5 -13 -8 -19 -8 -14 0 -16 -24 -3 -27 5 -2 15 7 24
20 14 21 13 30 -2 15z"/>
<path d="M1700 10186 c0 -14 5 -26 10 -26 6 0 10 9 10 19 0 11 -4 23 -10 26
-6 4 -10 -5 -10 -19z"/>
<path d="M1732 10170 c0 -19 2 -27 5 -17 2 9 2 25 0 35 -3 9 -5 1 -5 -18z"/>
<path d="M1652 10085 c0 -16 2 -22 5 -12 2 9 2 23 0 30 -3 6 -5 -1 -5 -18z"/>
<path d="M1800 10068 c0 -25 3 -29 10 -18 13 20 13 50 0 50 -5 0 -10 -15 -10
-32z"/>
<path d="M10040 9969 c-95 -31 -168 -68 -176 -91 -6 -20 -114 -78 -146 -78 -9
0 -57 -16 -108 -35 -50 -19 -132 -48 -183 -65 -51 -17 -119 -40 -152 -51 -206
-69 -466 -152 -755 -239 -86 -26 -280 -76 -410 -105 -58 -13 -172 -40 -255
-60 -246 -59 -322 -74 -490 -95 -88 -11 -189 -25 -225 -30 -36 -5 -119 -15
-185 -21 -66 -6 -127 -15 -137 -20 -9 -5 -36 -9 -60 -9 -24 0 -63 -7 -88 -16
-25 -9 -77 -17 -115 -18 -39 -2 -80 -8 -92 -14 -36 -20 -73 -14 -112 17 -46
36 -86 48 -98 29 -4 -8 -25 -25 -47 -38 -34 -20 -53 -23 -165 -26 -69 -2 -193
-7 -276 -10 -82 -3 -198 -8 -257 -10 -59 -2 -117 -8 -129 -14 -16 -9 -28 -9
-50 0 -19 8 -37 9 -56 3 -15 -6 -41 -8 -58 -7 -16 2 -36 3 -42 3 -7 0 -28 0
-45 1 -18 0 -72 0 -120 0 -77 0 -92 3 -127 25 -40 25 -40 25 -103 9 -35 -9
-75 -22 -90 -30 -31 -16 -150 -29 -175 -19 -10 3 -60 8 -111 10 -50 2 -107 8
-125 14 -22 8 -49 8 -82 2 -27 -5 -72 -7 -101 -4 -28 3 -59 1 -68 -4 -24 -13
-187 3 -204 21 -8 8 -15 28 -16 45 -1 22 -6 31 -18 31 -9 0 -21 7 -25 14 -14
25 -72 44 -109 36 -46 -11 -163 -99 -200 -152 -52 -74 -85 -137 -110 -210 -34
-101 -32 -136 9 -129 4 0 7 -5 7 -13 0 -7 7 -19 15 -26 16 -13 19 -6 16 31 -1
9 5 19 13 22 11 5 17 -3 21 -31 4 -20 10 -46 15 -57 10 -22 9 -29 13 92 2 49
7 67 23 84 18 18 25 19 43 9 12 -6 31 -8 41 -5 18 6 20 2 20 -34 0 -22 5 -52
11 -68 12 -29 18 -52 68 -248 53 -209 89 -376 111 -520 11 -77 25 -158 30
-180 5 -22 36 -206 69 -410 33 -203 70 -419 81 -480 22 -124 84 -487 105 -615
13 -79 33 -171 69 -315 8 -33 27 -109 41 -170 28 -114 60 -225 76 -260 5 -11
13 -38 18 -60 5 -22 19 -64 30 -92 12 -29 30 -76 40 -103 23 -61 64 -132 85
-150 9 -7 16 -18 16 -25 0 -8 4 -15 8 -17 8 -3 38 -54 104 -178 17 -30 33 -57
37 -60 4 -3 19 -26 34 -52 15 -26 33 -51 41 -55 7 -4 19 -19 26 -33 7 -14 27
-47 45 -75 17 -27 58 -90 90 -140 32 -49 81 -117 109 -150 70 -82 257 -265
281 -276 34 -15 58 -33 84 -63 24 -28 286 -206 303 -206 5 0 63 -28 131 -61
114 -58 242 -110 312 -129 17 -4 71 -22 120 -40 123 -43 332 -92 564 -130
l195 -32 289 6 c160 3 307 10 326 15 20 5 70 12 111 16 41 3 113 15 160 25
188 43 338 80 400 99 36 11 99 29 140 41 41 12 92 29 112 37 24 10 49 13 72 9
30 -6 40 -3 59 17 12 14 56 39 97 56 41 18 82 39 91 47 8 8 40 21 70 30 30 9
74 27 99 40 74 39 113 53 154 56 33 3 40 7 43 27 5 35 16 45 112 108 97 64
147 101 207 154 22 20 57 42 77 48 23 8 44 25 57 46 12 19 63 65 113 103 102
76 170 146 266 272 19 25 51 63 71 86 137 151 283 438 329 644 7 30 18 71 23
90 14 45 20 575 8 655 -47 300 -65 469 -105 995 -13 179 -30 390 -37 470 -14
174 -21 980 -9 1013 5 13 5 30 1 37 -5 8 -6 19 -2 24 3 6 8 28 10 50 2 21 9
48 16 60 7 11 21 59 30 106 10 47 20 92 23 100 3 8 5 22 4 31 -1 9 8 71 19
137 13 75 22 179 24 269 5 226 18 447 27 458 11 14 -32 104 -63 133 -32 29
-150 72 -197 72 -20 -1 -65 -10 -101 -21z m111 -295 c18 -22 25 -260 10 -330
-21 -94 -87 -126 -176 -85 -50 23 -79 52 -153 154 -67 93 -78 117 -57 117 8 0
32 17 53 38 24 24 73 53 132 79 103 45 168 54 191 27z m-530 -230 c18 -9 49
-55 99 -149 132 -248 156 -327 134 -442 -37 -194 -166 -334 -396 -430 -87 -37
-247 -39 -355 -5 -71 22 -132 63 -153 103 -23 42 -42 299 -35 466 8 188 13
199 106 249 27 15 49 32 49 39 0 14 31 29 91 45 24 7 61 20 84 29 39 18 82 36
195 82 99 40 124 42 181 13z m-610 -187 c-28 -53 -304 -167 -367 -151 -37 9
-75 30 -85 45 -30 49 204 125 358 117 66 -4 83 -1 88 10 3 8 8 12 12 8 3 -3 1
-16 -6 -29z m-461 -167 c12 -11 31 -22 41 -25 11 -4 19 -10 19 -15 0 -4 20
-36 44 -71 24 -35 55 -87 69 -115 84 -166 113 -519 53 -649 -45 -97 -162 -202
-282 -253 -78 -33 -226 -63 -359 -72 -284 -21 -388 49 -480 324 -39 117 -57
213 -56 315 0 79 5 110 32 193 20 60 42 109 57 124 62 61 208 127 346 155 28
6 87 21 131 34 44 13 132 31 195 40 63 9 119 21 125 26 15 15 40 10 65 -11z
m-871 -73 c6 -8 8 -17 5 -20 -4 -4 1 -18 10 -32 22 -33 12 -46 -61 -82 -30
-15 -70 -45 -90 -66 -69 -77 -207 -133 -306 -123 -34 3 -98 8 -142 12 -44 3
-84 9 -90 12 -19 12 -41 15 -93 14 -41 -1 -61 4 -83 20 -31 23 -50 18 -33 -10
6 -9 40 -40 75 -69 80 -65 111 -120 149 -260 24 -87 30 -128 30 -213 0 -150
-22 -289 -56 -356 -50 -100 -156 -177 -299 -221 -49 -14 -96 -18 -250 -18
-207 0 -268 10 -374 62 -62 30 -193 156 -233 224 -56 95 -67 151 -69 340 -1
111 2 184 10 202 6 16 11 40 11 55 0 40 43 124 77 152 31 27 85 53 198 96 39
15 74 33 78 40 5 9 27 14 63 14 30 0 80 9 112 19 47 16 81 19 199 16 79 -1
148 -7 155 -12 7 -6 28 -13 46 -16 27 -5 32 -3 32 12 0 32 36 54 91 56 36 1
56 7 64 19 23 30 185 7 185 -26 0 -11 124 -10 136 1 5 6 25 12 45 14 20 2 58
16 84 32 27 15 65 30 84 31 20 2 47 6 61 9 14 3 42 8 63 11 28 5 41 13 52 34
13 25 27 37 46 39 4 1 12 -5 18 -12z m-3857 -183 c-7 -59 -65 -86 -121 -58
-36 18 -36 17 -15 49 20 30 44 33 44 4 0 -16 4 -19 23 -13 30 9 47 24 47 41 0
8 6 13 13 10 7 -2 11 -16 9 -33z m2092 -9 c21 -32 9 -58 -39 -80 -20 -10 -35
-25 -37 -38 -2 -16 -13 -23 -42 -29 -21 -5 -49 -19 -62 -33 -22 -24 -23 -24
-64 -7 -23 9 -64 39 -91 65 -48 48 -48 49 -31 72 9 12 33 29 52 36 47 17 179
13 200 -6 23 -21 33 -19 63 15 15 17 29 30 31 30 2 0 11 -11 20 -25z m-694
-51 c36 -3 83 -15 105 -25 22 -10 57 -25 78 -33 125 -51 211 -295 187 -531
-12 -113 -25 -153 -79 -245 -69 -116 -135 -168 -266 -212 -62 -20 -88 -23
-220 -22 -170 2 -247 19 -343 76 -136 82 -190 203 -199 438 l-5 145 41 124
c39 118 67 172 101 198 35 27 101 53 171 68 80 18 272 35 329 29 19 -2 64 -6
100 -10z m-900 -91 c60 -18 65 -22 66 -49 0 -16 1 -55 2 -86 1 -37 8 -62 18
-73 15 -14 14 -23 -12 -103 -15 -48 -34 -94 -42 -104 -45 -55 -269 -90 -342
-53 -58 29 -110 102 -136 191 -21 71 -25 238 -6 271 15 28 39 31 232 28 121
-2 169 -7 220 -22z m4692 -1313 c56 -16 108 -88 108 -149 0 -71 -40 -120 -98
-121 -50 0 -102 32 -159 98 l-53 60 14 39 c23 67 100 97 188 73z m574 -319
c79 -24 156 -74 227 -149 99 -105 110 -161 47 -241 -35 -44 -45 -51 -76 -51
-29 0 -38 -6 -56 -36 -29 -49 -88 -73 -199 -81 -81 -5 -92 -4 -141 20 -30 15
-65 39 -80 54 -30 31 -118 201 -118 226 0 9 -7 32 -17 51 -16 34 -16 36 11 70
14 19 53 59 86 88 46 40 70 54 103 59 83 12 153 9 213 -10z m-4980 -753 c57
-39 82 -112 52 -149 -29 -34 -98 -79 -139 -90 -96 -24 -104 -24 -129 11 -51
72 -29 189 43 226 74 39 118 39 173 2z m4808 -45 c32 -11 63 -27 68 -37 12
-22 17 -77 6 -70 -4 3 -8 0 -8 -6 0 -6 -5 -8 -11 -5 -6 4 -16 0 -22 -8 -7 -9
-29 -20 -49 -25 -32 -9 -39 -7 -55 12 -25 27 -45 75 -38 87 4 5 3 15 -1 21 -7
10 -9 44 -5 62 1 5 18 0 115 -31z m568 -69 c59 -27 151 -90 170 -115 44 -60
62 -249 35 -356 -19 -71 -70 -152 -122 -191 -125 -95 -197 -95 -348 1 -42 27
-63 50 -93 103 -47 84 -71 140 -91 219 -24 97 -19 123 47 215 34 48 49 62 92
84 20 10 36 24 35 30 -1 6 11 10 28 8 17 -1 55 4 85 12 63 15 114 12 162 -10z
m-5230 -384 c80 -14 115 -30 154 -72 48 -50 65 -92 74 -181 8 -78 -6 -177 -28
-199 -14 -14 -237 -108 -271 -114 -45 -9 -107 23 -141 72 -58 86 -104 227
-115 355 -7 73 -6 77 19 96 14 12 47 24 73 28 67 11 74 13 79 17 9 9 99 8 156
-2z m4600 -417 c121 -9 190 -62 249 -188 59 -129 79 -347 39 -425 -10 -19 -28
-56 -40 -81 -30 -64 -84 -114 -160 -146 -54 -22 -81 -27 -155 -27 -145 -1
-175 22 -318 247 -110 172 -122 246 -60 368 60 118 169 209 298 249 22 7 44
16 49 21 5 5 15 4 22 -2 7 -6 42 -13 76 -16z m768 -5 c0 -7 -9 -24 -20 -38
-21 -27 -26 -66 -9 -72 12 -4 -16 -99 -46 -159 -19 -37 -120 -175 -135 -184
-5 -3 -20 -30 -34 -60 -14 -30 -29 -55 -33 -55 -16 0 -47 65 -45 94 2 15 -3
35 -9 42 -6 8 -15 35 -20 60 -5 25 -20 60 -35 77 -23 27 -25 36 -19 81 8 59
30 106 49 106 7 0 33 -7 56 -15 55 -19 57 -19 66 8 9 30 22 37 74 37 39 0 51
6 94 45 51 46 66 54 66 33z m-4960 -8 c0 -5 -9 -14 -21 -20 -19 -11 -20 -10
-9 9 11 22 30 29 30 11z m48 -62 c4 -31 -25 -59 -39 -37 -5 8 -9 28 -9 46 0
29 2 32 23 24 13 -5 23 -18 25 -33z m131 -213 c156 -37 323 -176 382 -316 29
-71 -37 -372 -90 -408 -14 -9 -60 -32 -101 -51 -62 -27 -87 -33 -143 -32 -50
0 -70 -4 -74 -14 -8 -21 -27 -17 -51 11 -12 14 -32 25 -44 25 -49 1 -105 39
-186 126 -109 117 -147 192 -147 289 1 54 6 81 24 115 72 138 233 269 331 270
19 0 64 -7 99 -15z m-551 -27 c0 -7 6 -43 13 -80 12 -67 12 -67 -20 -114 -17
-26 -31 -52 -31 -58 -1 -33 -18 -36 -47 -9 -40 38 -51 93 -23 118 16 14 19 26
14 51 -8 41 9 72 49 89 40 18 43 18 45 3z m3790 -167 c61 -7 83 -15 128 -47
49 -33 60 -48 100 -130 77 -162 91 -285 49 -443 -54 -200 -140 -333 -253 -388
-110 -54 -192 -31 -375 104 -108 80 -166 146 -212 238 -46 94 -58 158 -53 279
6 125 28 175 117 259 75 71 143 103 257 121 106 17 146 18 242 7z m-2168 -191
c30 -7 71 -21 91 -31 95 -48 184 -182 195 -296 6 -54 -7 -141 -37 -258 -21
-80 -163 -277 -242 -335 -22 -16 -65 -37 -96 -46 -65 -19 -135 -10 -227 31
-104 46 -191 166 -255 355 -30 86 -33 107 -35 225 -1 115 1 136 21 180 43 98
107 147 240 182 59 15 261 11 345 -7z m1092 5 c92 -15 205 -101 262 -198 43
-72 56 -228 33 -375 -23 -143 -66 -230 -157 -323 -97 -99 -190 -142 -318 -147
-93 -4 -95 -4 -170 34 -99 51 -158 111 -215 220 -83 162 -98 344 -43 507 22
62 34 80 88 131 35 32 74 64 88 71 54 28 218 77 280 84 63 7 84 7 152 -4z
m1848 -343 c0 -11 -39 -52 -50 -52 -4 0 -12 -11 -17 -25 -11 -33 -107 -131
-158 -160 -22 -13 -60 -25 -85 -27 -38 -3 -46 0 -57 22 -20 37 -10 122 21 175
21 36 32 44 63 49 52 8 112 1 148 -18 39 -21 64 -20 72 2 12 30 63 58 63 34z
m-3655 -199 c9 -27 27 -82 40 -123 13 -41 33 -99 44 -128 26 -66 14 -74 -59
-37 -145 74 -290 188 -290 230 0 33 86 70 145 62 50 -7 85 4 85 28 0 31 18 13
35 -32z m2309 -165 c9 -10 16 -24 16 -31 0 -27 34 -59 100 -92 67 -34 130 -84
130 -104 0 -6 -9 -15 -20 -21 -11 -6 -20 -19 -20 -29 0 -19 -44 -36 -195 -71
-144 -35 -224 -45 -238 -31 -24 24 40 208 115 326 21 33 43 73 50 89 l11 29
18 -24 c10 -13 25 -32 33 -41z m-1235 -35 c6 -21 11 -44 11 -50 0 -35 70 -193
98 -223 18 -18 32 -38 32 -45 0 -6 11 -26 25 -45 18 -24 22 -37 14 -44 -14
-15 -207 -10 -272 7 -55 15 -137 60 -137 77 0 15 40 83 65 110 30 33 69 102
95 170 36 91 53 101 69 43z m320 -382 c38 -29 7 -57 -33 -28 -11 8 -15 19 -10
30 8 21 13 21 43 -2z"/>
<path d="M2004 9924 c-7 -57 -7 -104 2 -113 10 -10 17 13 24 76 6 50 4 72 -5
82 -11 11 -15 3 -21 -45z"/>
<path d="M1910 9911 c0 -12 5 -21 10 -21 6 0 10 6 10 14 0 8 -4 18 -10 21 -5
3 -10 -3 -10 -14z"/>
<path d="M1806 9883 c-6 -14 -5 -15 5 -6 7 7 10 15 7 18 -3 3 -9 -2 -12 -12z"/>
<path d="M1651 9874 c0 -11 3 -14 6 -6 3 7 2 16 -1 19 -3 4 -6 -2 -5 -13z"/>
<path d="M5790 9878 c-19 -5 -51 -10 -70 -12 -35 -2 -60 -9 -92 -27 -10 -5
-25 -9 -33 -9 -9 0 -14 -3 -11 -8 8 -14 118 -6 130 9 7 9 30 15 59 16 50 1 79
16 62 31 -6 5 -26 5 -45 0z"/>
<path d="M1890 9855 c0 -8 5 -15 11 -15 7 0 9 -12 5 -35 -6 -28 -4 -35 9 -35
21 0 20 63 -1 84 -19 20 -24 20 -24 1z"/>
<path d="M3050 9789 c0 -5 5 -7 10 -4 6 3 10 8 10 11 0 2 -4 4 -10 4 -5 0 -10
-5 -10 -11z"/>
<path d="M2007 9766 c-17 -13 -24 -66 -8 -66 5 0 11 10 15 23 5 18 8 20 16 7
8 -11 9 -7 4 15 -4 17 -7 31 -8 32 -1 1 -9 -4 -19 -11z"/>
<path d="M1652 9745 c0 -16 2 -22 5 -12 2 9 2 23 0 30 -3 6 -5 -1 -5 -18z"/>
<path d="M10446 9723 c3 -31 11 -40 24 -27 13 13 4 40 -14 47 -9 4 -12 -3 -10
-20z"/>
<path d="M2085 9700 c-9 -14 5 -80 17 -80 6 0 8 6 5 14 -3 7 -1 18 5 24 11 11
2 52 -12 52 -5 0 -12 -4 -15 -10z"/>
<path d="M1650 9655 c-5 -32 -2 -76 4 -82 11 -12 13 2 6 52 -4 28 -9 41 -10
30z"/>
<path d="M2492 9508 c-7 -7 -12 -18 -12 -25 0 -6 -21 -26 -46 -43 -25 -18 -44
-34 -42 -36 2 -2 21 -1 41 3 27 4 41 14 56 38 35 60 37 97 3 63z"/>
<path d="M1602 9350 c0 -14 2 -19 5 -12 2 6 2 18 0 25 -3 6 -5 1 -5 -13z"/>
<path d="M1600 9301 c0 -11 5 -23 10 -26 6 -3 10 3 10 14 0 11 -4 23 -10 26
-5 3 -10 -3 -10 -14z"/>
<path d="M2501 9255 c-33 -46 -45 -56 -35 -30 12 29 -4 14 -29 -27 -14 -24
-40 -59 -56 -78 -37 -42 -57 -82 -64 -133 -5 -34 -4 -36 13 -27 10 5 22 19 25
30 3 11 11 20 16 20 5 0 18 19 28 43 10 23 45 78 78 122 59 79 83 125 65 125
-5 0 -23 -20 -41 -45z"/>
<path d="M1700 9105 c0 -19 5 -35 10 -35 6 0 10 16 10 35 0 19 -4 35 -10 35
-5 0 -10 -16 -10 -35z"/>
<path d="M2290 9025 c0 -8 5 -15 10 -15 6 0 10 7 10 15 0 8 -4 15 -10 15 -5 0
-10 -7 -10 -15z"/>
<path d="M1688 8925 c-5 -9 -5 -43 1 -90 2 -14 6 -9 11 13 8 34 -1 94 -12 77z"/>
<path d="M2252 8863 c-7 -12 -12 -32 -11 -45 1 -20 3 -18 15 11 17 38 13 67
-4 34z"/>
<path d="M2468 8791 c-21 -18 -38 -39 -38 -46 0 -8 -9 -17 -20 -20 -12 -4 -35
-35 -55 -76 -20 -38 -39 -69 -44 -69 -15 0 -44 -131 -31 -144 6 -6 13 -6 19 0
8 7 58 116 111 239 8 18 15 25 17 17 6 -16 -25 -131 -40 -152 -7 -8 -1 -6 12
5 37 32 115 215 109 257 -3 21 -4 21 -40 -11z"/>
<path d="M3395 8380 c3 -5 11 -10 16 -10 6 0 7 5 4 10 -3 6 -11 10 -16 10 -6
0 -7 -4 -4 -10z"/>
<path d="M1772 8293 c5 -32 11 -65 15 -73 3 -8 5 -18 5 -22 -1 -5 5 -8 14 -8
8 0 12 5 9 11 -4 6 -7 26 -7 44 0 21 -5 33 -11 32 -7 -1 -12 12 -12 32 0 19
-5 36 -11 38 -8 3 -9 -13 -2 -54z"/>
<path d="M2326 8331 c-4 -7 -5 -15 -2 -18 9 -9 19 4 14 18 -4 11 -6 11 -12 0z"/>
<path d="M2366 8311 c-13 -14 -14 -21 -6 -26 13 -8 30 11 30 33 0 16 -4 15
-24 -7z"/>
<path d="M2453 8251 c-29 -59 -30 -60 -55 -47 -24 13 -27 12 -37 -11 -15 -33
-14 -60 4 -67 8 -3 15 -12 15 -21 0 -9 8 -32 19 -53 33 -66 34 -100 5 -129
-14 -14 -32 -43 -39 -63 -13 -36 -73 -127 -130 -197 -15 -18 -22 -33 -16 -33
6 0 11 5 11 10 0 6 6 10 14 10 29 0 76 36 102 78 23 36 32 42 56 40 27 -3 31
1 49 52 17 46 19 69 14 138 -3 45 -13 104 -20 130 -20 64 -19 92 3 92 28 1 53
26 62 62 4 18 9 40 11 48 3 9 -4 16 -17 18 -18 2 -27 -8 -51 -57z"/>
<path d="M3450 8231 c0 -7 -4 -9 -10 -6 -12 7 -12 -2 -1 -30 8 -19 8 -19 20 4
9 17 10 26 2 34 -8 8 -11 8 -11 -2z"/>
<path d="M2124 8126 c-52 -110 -55 -132 -13 -85 29 31 31 32 24 9 -4 -14 -14
-37 -21 -52 -17 -32 -18 -41 -4 -33 6 3 10 2 10 -3 0 -5 -9 -12 -19 -15 -11
-2 -27 -20 -37 -38 -25 -51 -74 -109 -90 -109 -8 0 -14 -6 -14 -14 0 -8 -9
-30 -19 -48 -12 -21 -16 -40 -12 -52 7 -17 12 -14 40 27 17 26 50 68 72 94 21
27 44 53 49 59 5 7 16 27 24 45 9 19 20 41 25 49 6 8 24 45 41 82 17 37 41 75
54 86 15 11 27 35 32 58 l7 39 -34 -26 c-19 -15 -35 -36 -37 -47 -2 -11 -10
-26 -19 -34 -15 -11 -16 -10 -9 12 11 37 13 90 3 90 -4 0 -28 -42 -53 -94z"/>
<path d="M1892 7890 c0 -14 2 -19 5 -12 2 6 2 18 0 25 -3 6 -5 1 -5 -13z"/>
<path d="M1850 7880 c0 -6 7 -13 15 -16 8 -4 15 -16 16 -28 0 -12 3 -15 6 -8
3 8 0 25 -8 38 -13 25 -29 32 -29 14z"/>
<path d="M2705 7710 c-3 -5 -23 -10 -43 -10 -28 0 -33 -3 -24 -12 21 -21 13
-55 -19 -82 -17 -14 -34 -26 -39 -26 -7 0 -7 -12 -1 -77 2 -25 17 -13 30 24 8
20 33 57 56 82 43 46 65 81 65 100 0 14 -17 14 -25 1z"/>
<path d="M2560 7690 c0 -23 1 -24 35 -8 18 8 22 14 13 20 -24 15 -48 9 -48
-12z"/>
<path d="M2355 7391 c-3 -6 -18 -34 -34 -63 -33 -61 -101 -181 -142 -251 -16
-27 -29 -53 -29 -60 0 -6 -8 -29 -19 -51 -10 -23 -26 -61 -36 -86 -10 -25 -25
-52 -32 -61 -7 -8 -13 -19 -13 -23 0 -4 -7 -14 -15 -23 -9 -8 -13 -18 -9 -22
4 -3 9 0 11 7 3 7 15 17 27 22 15 5 43 50 91 147 38 76 86 164 108 195 40 60
89 176 101 241 7 36 3 47 -9 28z"/>
<path d="M2020 6655 c-1 -5 -2 -14 -1 -18 1 -4 -11 -19 -27 -32 -30 -25 -40
-60 -15 -50 8 3 18 5 23 5 13 0 32 56 27 82 -2 12 -5 19 -7 13z"/>
<path d="M3971 4858 c0 -7 7 -29 14 -48 12 -31 14 -32 14 -10 1 34 -9 70 -20
70 -5 0 -9 -6 -8 -12z"/>
<path d="M4124 4478 c6 -42 30 -106 66 -183 15 -33 40 -89 55 -125 86 -205
235 -435 364 -560 65 -64 91 -86 261 -229 47 -39 109 -92 139 -118 30 -27 69
-61 88 -78 19 -16 44 -38 54 -47 10 -10 22 -18 25 -18 4 0 14 -8 23 -18 9 -10
41 -35 71 -55 30 -20 64 -43 75 -52 11 -8 32 -24 47 -35 14 -11 30 -20 35 -20
6 0 36 -19 69 -42 32 -22 72 -43 88 -45 16 -1 35 -8 43 -14 7 -7 16 -9 20 -5
3 3 18 -1 32 -10 17 -12 26 -14 29 -6 5 15 52 16 52 2 0 -6 -3 -9 -7 -8 -5 2
-9 -1 -11 -7 -3 -11 57 -27 70 -19 5 3 8 0 8 -5 0 -6 12 -11 28 -12 27 0 76
-17 57 -19 -9 -1 55 -27 80 -33 6 -1 12 -5 15 -9 3 -3 22 -9 43 -13 33 -7 37
-5 31 11 -5 15 -3 14 10 -3 19 -25 42 -30 49 -10 3 7 6 6 6 -5 1 -9 11 -20 24
-24 12 -3 29 -12 37 -19 24 -20 121 -47 180 -51 30 -2 66 -6 80 -9 14 -3 88
-10 165 -16 77 -5 181 -15 230 -23 50 -7 158 -12 240 -11 159 2 269 20 425 70
67 21 110 31 215 50 17 3 57 7 90 9 73 6 154 16 177 22 9 3 25 7 35 9 189 41
583 153 648 185 11 6 45 18 75 29 166 56 437 196 635 325 239 157 296 197 369
259 45 38 119 101 166 140 137 116 218 197 281 280 57 76 72 110 47 104 -8 -1
-11 9 -9 32 l3 34 -30 -21 c-16 -12 -112 -104 -213 -204 -102 -101 -213 -205
-248 -233 -35 -27 -89 -72 -120 -98 -56 -48 -173 -129 -326 -224 -83 -52 -319
-171 -396 -199 -24 -9 -84 -31 -134 -49 -49 -17 -121 -44 -160 -59 -38 -15
-90 -34 -115 -42 -25 -9 -52 -19 -60 -23 -8 -4 -55 -20 -105 -35 -49 -15 -128
-40 -175 -55 -92 -30 -120 -38 -250 -72 -47 -12 -105 -28 -130 -35 -147 -43
-253 -51 -545 -45 -88 2 -181 0 -208 -4 -30 -5 -52 -3 -60 3 -9 8 -21 7 -41
-3 -37 -19 -39 -19 -33 5 3 13 -1 21 -16 26 -12 4 -23 2 -25 -5 -2 -7 -8 -7
-17 2 -7 8 -72 21 -146 31 -111 15 -251 38 -366 60 -11 3 -43 8 -70 12 -26 3
-59 12 -73 19 -14 7 -46 17 -72 23 -43 11 -165 62 -231 97 -16 8 -35 15 -44
15 -8 0 -29 6 -46 14 -18 8 -52 19 -77 24 -97 22 -339 142 -547 272 -284 178
-540 447 -809 848 -106 159 -122 184 -146 230 -12 23 -26 42 -31 42 -4 0 -6 4
-3 9 3 5 -1 14 -9 21 -8 7 -15 19 -15 26 0 8 -4 14 -10 14 -5 0 -10 9 -10 20
0 11 -5 20 -11 20 -6 0 -9 -13 -5 -32z m1676 -1668 c0 -5 -7 -10 -16 -10 -8 0
-12 5 -9 10 3 6 10 10 16 10 5 0 9 -4 9 -10z m1082 -132 c-7 -7 -12 -8 -12 -2
0 14 12 26 19 19 2 -3 -1 -11 -7 -17z"/>
</g>
</svg>
